<mxfile host="app.diagrams.net" modified="2021-11-19T21:24:33.961Z" agent="5.0 (Windows NT 10.0; Win64; x64) AppleWebKit/537.36 (KHTML, like Gecko) Chrome/95.0.4638.69 Safari/537.36 Edg/95.0.1020.53" etag="kYjxtxC4xzH6mgujPEfB" version="15.8.3" type="github" pages="4">
  <diagram id="R2lEEEUBdFMjLlhIrx00" name="ER">
    <mxGraphModel dx="1406" dy="834" grid="1" gridSize="10" guides="1" tooltips="1" connect="1" arrows="1" fold="1" page="1" pageScale="1" pageWidth="1169" pageHeight="827" math="0" shadow="0" extFonts="Permanent Marker^https://fonts.googleapis.com/css?family=Permanent+Marker">
      <root>
        <mxCell id="0" />
        <mxCell id="1" parent="0" />
        <mxCell id="C-vyLk0tnHw3VtMMgP7b-23" value="Answers" style="shape=table;startSize=30;container=1;collapsible=1;childLayout=tableLayout;fixedRows=1;rowLines=0;fontStyle=1;align=center;resizeLast=1;" parent="1" vertex="1">
          <mxGeometry x="990" y="540" width="260" height="190" as="geometry" />
        </mxCell>
        <mxCell id="C-vyLk0tnHw3VtMMgP7b-24" value="" style="shape=partialRectangle;collapsible=0;dropTarget=0;pointerEvents=0;fillColor=none;points=[[0,0.5],[1,0.5]];portConstraint=eastwest;top=0;left=0;right=0;bottom=1;" parent="C-vyLk0tnHw3VtMMgP7b-23" vertex="1">
          <mxGeometry y="30" width="260" height="30" as="geometry" />
        </mxCell>
        <mxCell id="C-vyLk0tnHw3VtMMgP7b-25" value="PK" style="shape=partialRectangle;overflow=hidden;connectable=0;fillColor=none;top=0;left=0;bottom=0;right=0;fontStyle=1;" parent="C-vyLk0tnHw3VtMMgP7b-24" vertex="1">
          <mxGeometry width="30" height="30" as="geometry">
            <mxRectangle width="30" height="30" as="alternateBounds" />
          </mxGeometry>
        </mxCell>
        <mxCell id="C-vyLk0tnHw3VtMMgP7b-26" value="AnswerID" style="shape=partialRectangle;overflow=hidden;connectable=0;fillColor=none;top=0;left=0;bottom=0;right=0;align=left;spacingLeft=6;fontStyle=5;" parent="C-vyLk0tnHw3VtMMgP7b-24" vertex="1">
          <mxGeometry x="30" width="100" height="30" as="geometry">
            <mxRectangle width="100" height="30" as="alternateBounds" />
          </mxGeometry>
        </mxCell>
        <mxCell id="jLjQqsiC2UJIbrjcn-J1-1" value="integer NOT NULL" style="shape=partialRectangle;overflow=hidden;connectable=0;fillColor=none;top=0;left=0;bottom=0;right=0;align=left;spacingLeft=6;fontStyle=0;" parent="C-vyLk0tnHw3VtMMgP7b-24" vertex="1">
          <mxGeometry x="130" width="130" height="30" as="geometry">
            <mxRectangle width="130" height="30" as="alternateBounds" />
          </mxGeometry>
        </mxCell>
        <mxCell id="C-vyLk0tnHw3VtMMgP7b-27" value="" style="shape=partialRectangle;collapsible=0;dropTarget=0;pointerEvents=0;fillColor=none;points=[[0,0.5],[1,0.5]];portConstraint=eastwest;top=0;left=0;right=0;bottom=0;" parent="C-vyLk0tnHw3VtMMgP7b-23" vertex="1">
          <mxGeometry y="60" width="260" height="30" as="geometry" />
        </mxCell>
        <mxCell id="C-vyLk0tnHw3VtMMgP7b-28" value="" style="shape=partialRectangle;overflow=hidden;connectable=0;fillColor=none;top=0;left=0;bottom=0;right=0;" parent="C-vyLk0tnHw3VtMMgP7b-27" vertex="1">
          <mxGeometry width="30" height="30" as="geometry">
            <mxRectangle width="30" height="30" as="alternateBounds" />
          </mxGeometry>
        </mxCell>
        <mxCell id="C-vyLk0tnHw3VtMMgP7b-29" value="Correct" style="shape=partialRectangle;overflow=hidden;connectable=0;fillColor=none;top=0;left=0;bottom=0;right=0;align=left;spacingLeft=6;" parent="C-vyLk0tnHw3VtMMgP7b-27" vertex="1">
          <mxGeometry x="30" width="100" height="30" as="geometry">
            <mxRectangle width="100" height="30" as="alternateBounds" />
          </mxGeometry>
        </mxCell>
        <mxCell id="jLjQqsiC2UJIbrjcn-J1-2" value="boolean NOT NULL" style="shape=partialRectangle;overflow=hidden;connectable=0;fillColor=none;top=0;left=0;bottom=0;right=0;align=left;spacingLeft=6;" parent="C-vyLk0tnHw3VtMMgP7b-27" vertex="1">
          <mxGeometry x="130" width="130" height="30" as="geometry">
            <mxRectangle width="130" height="30" as="alternateBounds" />
          </mxGeometry>
        </mxCell>
        <mxCell id="jLjQqsiC2UJIbrjcn-J1-3" style="shape=partialRectangle;collapsible=0;dropTarget=0;pointerEvents=0;fillColor=none;points=[[0,0.5],[1,0.5]];portConstraint=eastwest;top=0;left=0;right=0;bottom=0;" parent="C-vyLk0tnHw3VtMMgP7b-23" vertex="1">
          <mxGeometry y="90" width="260" height="30" as="geometry" />
        </mxCell>
        <mxCell id="jLjQqsiC2UJIbrjcn-J1-4" style="shape=partialRectangle;overflow=hidden;connectable=0;fillColor=none;top=0;left=0;bottom=0;right=0;" parent="jLjQqsiC2UJIbrjcn-J1-3" vertex="1">
          <mxGeometry width="30" height="30" as="geometry">
            <mxRectangle width="30" height="30" as="alternateBounds" />
          </mxGeometry>
        </mxCell>
        <mxCell id="jLjQqsiC2UJIbrjcn-J1-5" value="Content" style="shape=partialRectangle;overflow=hidden;connectable=0;fillColor=none;top=0;left=0;bottom=0;right=0;align=left;spacingLeft=6;" parent="jLjQqsiC2UJIbrjcn-J1-3" vertex="1">
          <mxGeometry x="30" width="100" height="30" as="geometry">
            <mxRectangle width="100" height="30" as="alternateBounds" />
          </mxGeometry>
        </mxCell>
        <mxCell id="jLjQqsiC2UJIbrjcn-J1-6" value="textÂ " style="shape=partialRectangle;overflow=hidden;connectable=0;fillColor=none;top=0;left=0;bottom=0;right=0;align=left;spacingLeft=6;" parent="jLjQqsiC2UJIbrjcn-J1-3" vertex="1">
          <mxGeometry x="130" width="130" height="30" as="geometry">
            <mxRectangle width="130" height="30" as="alternateBounds" />
          </mxGeometry>
        </mxCell>
        <mxCell id="jLjQqsiC2UJIbrjcn-J1-7" style="shape=partialRectangle;collapsible=0;dropTarget=0;pointerEvents=0;fillColor=none;points=[[0,0.5],[1,0.5]];portConstraint=eastwest;top=0;left=0;right=0;bottom=0;" parent="C-vyLk0tnHw3VtMMgP7b-23" vertex="1">
          <mxGeometry y="120" width="260" height="30" as="geometry" />
        </mxCell>
        <mxCell id="jLjQqsiC2UJIbrjcn-J1-8" style="shape=partialRectangle;overflow=hidden;connectable=0;fillColor=none;top=0;left=0;bottom=0;right=0;" parent="jLjQqsiC2UJIbrjcn-J1-7" vertex="1">
          <mxGeometry width="30" height="30" as="geometry">
            <mxRectangle width="30" height="30" as="alternateBounds" />
          </mxGeometry>
        </mxCell>
        <mxCell id="jLjQqsiC2UJIbrjcn-J1-9" value="Argumentation" style="shape=partialRectangle;overflow=hidden;connectable=0;fillColor=none;top=0;left=0;bottom=0;right=0;align=left;spacingLeft=6;" parent="jLjQqsiC2UJIbrjcn-J1-7" vertex="1">
          <mxGeometry x="30" width="100" height="30" as="geometry">
            <mxRectangle width="100" height="30" as="alternateBounds" />
          </mxGeometry>
        </mxCell>
        <mxCell id="jLjQqsiC2UJIbrjcn-J1-10" value="text" style="shape=partialRectangle;overflow=hidden;connectable=0;fillColor=none;top=0;left=0;bottom=0;right=0;align=left;spacingLeft=6;" parent="jLjQqsiC2UJIbrjcn-J1-7" vertex="1">
          <mxGeometry x="130" width="130" height="30" as="geometry">
            <mxRectangle width="130" height="30" as="alternateBounds" />
          </mxGeometry>
        </mxCell>
        <mxCell id="jLjQqsiC2UJIbrjcn-J1-11" style="shape=partialRectangle;collapsible=0;dropTarget=0;pointerEvents=0;fillColor=none;points=[[0,0.5],[1,0.5]];portConstraint=eastwest;top=0;left=0;right=0;bottom=0;" parent="C-vyLk0tnHw3VtMMgP7b-23" vertex="1">
          <mxGeometry y="150" width="260" height="30" as="geometry" />
        </mxCell>
        <mxCell id="jLjQqsiC2UJIbrjcn-J1-12" value="FK" style="shape=partialRectangle;overflow=hidden;connectable=0;fillColor=none;top=0;left=0;bottom=0;right=0;" parent="jLjQqsiC2UJIbrjcn-J1-11" vertex="1">
          <mxGeometry width="30" height="30" as="geometry">
            <mxRectangle width="30" height="30" as="alternateBounds" />
          </mxGeometry>
        </mxCell>
        <mxCell id="jLjQqsiC2UJIbrjcn-J1-13" value="QuestionID" style="shape=partialRectangle;overflow=hidden;connectable=0;fillColor=none;top=0;left=0;bottom=0;right=0;align=left;spacingLeft=6;" parent="jLjQqsiC2UJIbrjcn-J1-11" vertex="1">
          <mxGeometry x="30" width="100" height="30" as="geometry">
            <mxRectangle width="100" height="30" as="alternateBounds" />
          </mxGeometry>
        </mxCell>
        <mxCell id="jLjQqsiC2UJIbrjcn-J1-14" value="integer" style="shape=partialRectangle;overflow=hidden;connectable=0;fillColor=none;top=0;left=0;bottom=0;right=0;align=left;spacingLeft=6;" parent="jLjQqsiC2UJIbrjcn-J1-11" vertex="1">
          <mxGeometry x="130" width="130" height="30" as="geometry">
            <mxRectangle width="130" height="30" as="alternateBounds" />
          </mxGeometry>
        </mxCell>
        <mxCell id="jLjQqsiC2UJIbrjcn-J1-15" value="Classes" style="shape=table;startSize=30;container=1;collapsible=1;childLayout=tableLayout;fixedRows=1;rowLines=0;fontStyle=1;align=center;resizeLast=1;" parent="1" vertex="1">
          <mxGeometry x="30" y="30" width="260" height="120" as="geometry" />
        </mxCell>
        <mxCell id="jLjQqsiC2UJIbrjcn-J1-16" value="" style="shape=partialRectangle;collapsible=0;dropTarget=0;pointerEvents=0;fillColor=none;points=[[0,0.5],[1,0.5]];portConstraint=eastwest;top=0;left=0;right=0;bottom=1;" parent="jLjQqsiC2UJIbrjcn-J1-15" vertex="1">
          <mxGeometry y="30" width="260" height="30" as="geometry" />
        </mxCell>
        <mxCell id="jLjQqsiC2UJIbrjcn-J1-17" value="PK" style="shape=partialRectangle;overflow=hidden;connectable=0;fillColor=none;top=0;left=0;bottom=0;right=0;fontStyle=1;" parent="jLjQqsiC2UJIbrjcn-J1-16" vertex="1">
          <mxGeometry width="30" height="30" as="geometry">
            <mxRectangle width="30" height="30" as="alternateBounds" />
          </mxGeometry>
        </mxCell>
        <mxCell id="jLjQqsiC2UJIbrjcn-J1-18" value="ClassID" style="shape=partialRectangle;overflow=hidden;connectable=0;fillColor=none;top=0;left=0;bottom=0;right=0;align=left;spacingLeft=6;fontStyle=5;" parent="jLjQqsiC2UJIbrjcn-J1-16" vertex="1">
          <mxGeometry x="30" width="100" height="30" as="geometry">
            <mxRectangle width="100" height="30" as="alternateBounds" />
          </mxGeometry>
        </mxCell>
        <mxCell id="jLjQqsiC2UJIbrjcn-J1-19" value="integer NOT NULL" style="shape=partialRectangle;overflow=hidden;connectable=0;fillColor=none;top=0;left=0;bottom=0;right=0;align=left;spacingLeft=6;fontStyle=0;" parent="jLjQqsiC2UJIbrjcn-J1-16" vertex="1">
          <mxGeometry x="130" width="130" height="30" as="geometry">
            <mxRectangle width="130" height="30" as="alternateBounds" />
          </mxGeometry>
        </mxCell>
        <mxCell id="jLjQqsiC2UJIbrjcn-J1-20" value="" style="shape=partialRectangle;collapsible=0;dropTarget=0;pointerEvents=0;fillColor=none;points=[[0,0.5],[1,0.5]];portConstraint=eastwest;top=0;left=0;right=0;bottom=0;" parent="jLjQqsiC2UJIbrjcn-J1-15" vertex="1">
          <mxGeometry y="60" width="260" height="30" as="geometry" />
        </mxCell>
        <mxCell id="jLjQqsiC2UJIbrjcn-J1-21" value="" style="shape=partialRectangle;overflow=hidden;connectable=0;fillColor=none;top=0;left=0;bottom=0;right=0;" parent="jLjQqsiC2UJIbrjcn-J1-20" vertex="1">
          <mxGeometry width="30" height="30" as="geometry">
            <mxRectangle width="30" height="30" as="alternateBounds" />
          </mxGeometry>
        </mxCell>
        <mxCell id="jLjQqsiC2UJIbrjcn-J1-22" value="FriendlyName" style="shape=partialRectangle;overflow=hidden;connectable=0;fillColor=none;top=0;left=0;bottom=0;right=0;align=left;spacingLeft=6;" parent="jLjQqsiC2UJIbrjcn-J1-20" vertex="1">
          <mxGeometry x="30" width="100" height="30" as="geometry">
            <mxRectangle width="100" height="30" as="alternateBounds" />
          </mxGeometry>
        </mxCell>
        <mxCell id="jLjQqsiC2UJIbrjcn-J1-23" value="text" style="shape=partialRectangle;overflow=hidden;connectable=0;fillColor=none;top=0;left=0;bottom=0;right=0;align=left;spacingLeft=6;" parent="jLjQqsiC2UJIbrjcn-J1-20" vertex="1">
          <mxGeometry x="130" width="130" height="30" as="geometry">
            <mxRectangle width="130" height="30" as="alternateBounds" />
          </mxGeometry>
        </mxCell>
        <mxCell id="jLjQqsiC2UJIbrjcn-J1-24" style="shape=partialRectangle;collapsible=0;dropTarget=0;pointerEvents=0;fillColor=none;points=[[0,0.5],[1,0.5]];portConstraint=eastwest;top=0;left=0;right=0;bottom=0;" parent="jLjQqsiC2UJIbrjcn-J1-15" vertex="1">
          <mxGeometry y="90" width="260" height="30" as="geometry" />
        </mxCell>
        <mxCell id="jLjQqsiC2UJIbrjcn-J1-25" value="FK" style="shape=partialRectangle;overflow=hidden;connectable=0;fillColor=none;top=0;left=0;bottom=0;right=0;" parent="jLjQqsiC2UJIbrjcn-J1-24" vertex="1">
          <mxGeometry width="30" height="30" as="geometry">
            <mxRectangle width="30" height="30" as="alternateBounds" />
          </mxGeometry>
        </mxCell>
        <mxCell id="jLjQqsiC2UJIbrjcn-J1-26" value="TeacherID" style="shape=partialRectangle;overflow=hidden;connectable=0;fillColor=none;top=0;left=0;bottom=0;right=0;align=left;spacingLeft=6;" parent="jLjQqsiC2UJIbrjcn-J1-24" vertex="1">
          <mxGeometry x="30" width="100" height="30" as="geometry">
            <mxRectangle width="100" height="30" as="alternateBounds" />
          </mxGeometry>
        </mxCell>
        <mxCell id="jLjQqsiC2UJIbrjcn-J1-27" value="integer" style="shape=partialRectangle;overflow=hidden;connectable=0;fillColor=none;top=0;left=0;bottom=0;right=0;align=left;spacingLeft=6;" parent="jLjQqsiC2UJIbrjcn-J1-24" vertex="1">
          <mxGeometry x="130" width="130" height="30" as="geometry">
            <mxRectangle width="130" height="30" as="alternateBounds" />
          </mxGeometry>
        </mxCell>
        <mxCell id="jLjQqsiC2UJIbrjcn-J1-36" value="Games" style="shape=table;startSize=30;container=1;collapsible=1;childLayout=tableLayout;fixedRows=1;rowLines=0;fontStyle=1;align=center;resizeLast=1;" parent="1" vertex="1">
          <mxGeometry x="350" y="470" width="260" height="130" as="geometry" />
        </mxCell>
        <mxCell id="jLjQqsiC2UJIbrjcn-J1-37" value="" style="shape=partialRectangle;collapsible=0;dropTarget=0;pointerEvents=0;fillColor=none;points=[[0,0.5],[1,0.5]];portConstraint=eastwest;top=0;left=0;right=0;bottom=1;" parent="jLjQqsiC2UJIbrjcn-J1-36" vertex="1">
          <mxGeometry y="30" width="260" height="30" as="geometry" />
        </mxCell>
        <mxCell id="jLjQqsiC2UJIbrjcn-J1-38" value="PK" style="shape=partialRectangle;overflow=hidden;connectable=0;fillColor=none;top=0;left=0;bottom=0;right=0;fontStyle=1;" parent="jLjQqsiC2UJIbrjcn-J1-37" vertex="1">
          <mxGeometry width="30" height="30" as="geometry">
            <mxRectangle width="30" height="30" as="alternateBounds" />
          </mxGeometry>
        </mxCell>
        <mxCell id="jLjQqsiC2UJIbrjcn-J1-39" value="GameID" style="shape=partialRectangle;overflow=hidden;connectable=0;fillColor=none;top=0;left=0;bottom=0;right=0;align=left;spacingLeft=6;fontStyle=5;" parent="jLjQqsiC2UJIbrjcn-J1-37" vertex="1">
          <mxGeometry x="30" width="100" height="30" as="geometry">
            <mxRectangle width="100" height="30" as="alternateBounds" />
          </mxGeometry>
        </mxCell>
        <mxCell id="jLjQqsiC2UJIbrjcn-J1-40" value="integer NOT NULL" style="shape=partialRectangle;overflow=hidden;connectable=0;fillColor=none;top=0;left=0;bottom=0;right=0;align=left;spacingLeft=6;fontStyle=0;" parent="jLjQqsiC2UJIbrjcn-J1-37" vertex="1">
          <mxGeometry x="130" width="130" height="30" as="geometry">
            <mxRectangle width="130" height="30" as="alternateBounds" />
          </mxGeometry>
        </mxCell>
        <mxCell id="jLjQqsiC2UJIbrjcn-J1-41" value="" style="shape=partialRectangle;collapsible=0;dropTarget=0;pointerEvents=0;fillColor=none;points=[[0,0.5],[1,0.5]];portConstraint=eastwest;top=0;left=0;right=0;bottom=0;" parent="jLjQqsiC2UJIbrjcn-J1-36" vertex="1">
          <mxGeometry y="60" width="260" height="30" as="geometry" />
        </mxCell>
        <mxCell id="jLjQqsiC2UJIbrjcn-J1-42" value="FK" style="shape=partialRectangle;overflow=hidden;connectable=0;fillColor=none;top=0;left=0;bottom=0;right=0;" parent="jLjQqsiC2UJIbrjcn-J1-41" vertex="1">
          <mxGeometry width="30" height="30" as="geometry">
            <mxRectangle width="30" height="30" as="alternateBounds" />
          </mxGeometry>
        </mxCell>
        <mxCell id="jLjQqsiC2UJIbrjcn-J1-43" value="ScenarioID" style="shape=partialRectangle;overflow=hidden;connectable=0;fillColor=none;top=0;left=0;bottom=0;right=0;align=left;spacingLeft=6;" parent="jLjQqsiC2UJIbrjcn-J1-41" vertex="1">
          <mxGeometry x="30" width="100" height="30" as="geometry">
            <mxRectangle width="100" height="30" as="alternateBounds" />
          </mxGeometry>
        </mxCell>
        <mxCell id="jLjQqsiC2UJIbrjcn-J1-44" value="integer" style="shape=partialRectangle;overflow=hidden;connectable=0;fillColor=none;top=0;left=0;bottom=0;right=0;align=left;spacingLeft=6;" parent="jLjQqsiC2UJIbrjcn-J1-41" vertex="1">
          <mxGeometry x="130" width="130" height="30" as="geometry">
            <mxRectangle width="130" height="30" as="alternateBounds" />
          </mxGeometry>
        </mxCell>
        <mxCell id="jLjQqsiC2UJIbrjcn-J1-45" style="shape=partialRectangle;collapsible=0;dropTarget=0;pointerEvents=0;fillColor=none;points=[[0,0.5],[1,0.5]];portConstraint=eastwest;top=0;left=0;right=0;bottom=0;" parent="jLjQqsiC2UJIbrjcn-J1-36" vertex="1">
          <mxGeometry y="90" width="260" height="30" as="geometry" />
        </mxCell>
        <mxCell id="jLjQqsiC2UJIbrjcn-J1-46" value="FK" style="shape=partialRectangle;overflow=hidden;connectable=0;fillColor=none;top=0;left=0;bottom=0;right=0;" parent="jLjQqsiC2UJIbrjcn-J1-45" vertex="1">
          <mxGeometry width="30" height="30" as="geometry">
            <mxRectangle width="30" height="30" as="alternateBounds" />
          </mxGeometry>
        </mxCell>
        <mxCell id="jLjQqsiC2UJIbrjcn-J1-47" value="StudentID" style="shape=partialRectangle;overflow=hidden;connectable=0;fillColor=none;top=0;left=0;bottom=0;right=0;align=left;spacingLeft=6;" parent="jLjQqsiC2UJIbrjcn-J1-45" vertex="1">
          <mxGeometry x="30" width="100" height="30" as="geometry">
            <mxRectangle width="100" height="30" as="alternateBounds" />
          </mxGeometry>
        </mxCell>
        <mxCell id="jLjQqsiC2UJIbrjcn-J1-48" value="integer" style="shape=partialRectangle;overflow=hidden;connectable=0;fillColor=none;top=0;left=0;bottom=0;right=0;align=left;spacingLeft=6;" parent="jLjQqsiC2UJIbrjcn-J1-45" vertex="1">
          <mxGeometry x="130" width="130" height="30" as="geometry">
            <mxRectangle width="130" height="30" as="alternateBounds" />
          </mxGeometry>
        </mxCell>
        <mxCell id="jLjQqsiC2UJIbrjcn-J1-49" value="QuestionScenario" style="shape=table;startSize=30;container=1;collapsible=1;childLayout=tableLayout;fixedRows=1;rowLines=0;fontStyle=1;align=center;resizeLast=1;" parent="1" vertex="1">
          <mxGeometry x="650" y="300" width="310" height="90" as="geometry" />
        </mxCell>
        <mxCell id="jLjQqsiC2UJIbrjcn-J1-62" style="shape=partialRectangle;collapsible=0;dropTarget=0;pointerEvents=0;fillColor=none;points=[[0,0.5],[1,0.5]];portConstraint=eastwest;top=0;left=0;right=0;bottom=1;" parent="jLjQqsiC2UJIbrjcn-J1-49" vertex="1">
          <mxGeometry y="30" width="310" height="30" as="geometry" />
        </mxCell>
        <mxCell id="jLjQqsiC2UJIbrjcn-J1-63" value="PK,FK" style="shape=partialRectangle;overflow=hidden;connectable=0;fillColor=none;top=0;left=0;bottom=0;right=0;fontStyle=1;strokeColor=none;" parent="jLjQqsiC2UJIbrjcn-J1-62" vertex="1">
          <mxGeometry width="50" height="30" as="geometry">
            <mxRectangle width="50" height="30" as="alternateBounds" />
          </mxGeometry>
        </mxCell>
        <mxCell id="jLjQqsiC2UJIbrjcn-J1-64" value="QuestionsQuestionID" style="shape=partialRectangle;overflow=hidden;connectable=0;fillColor=none;top=0;left=0;bottom=0;right=0;align=left;spacingLeft=6;fontStyle=5;strokeColor=none;" parent="jLjQqsiC2UJIbrjcn-J1-62" vertex="1">
          <mxGeometry x="50" width="140" height="30" as="geometry">
            <mxRectangle width="140" height="30" as="alternateBounds" />
          </mxGeometry>
        </mxCell>
        <mxCell id="jLjQqsiC2UJIbrjcn-J1-65" value="integer NOT NULL" style="shape=partialRectangle;overflow=hidden;connectable=0;fillColor=none;top=0;left=0;bottom=0;right=0;align=left;spacingLeft=6;fontStyle=0;" parent="jLjQqsiC2UJIbrjcn-J1-62" vertex="1">
          <mxGeometry x="190" width="120" height="30" as="geometry">
            <mxRectangle width="120" height="30" as="alternateBounds" />
          </mxGeometry>
        </mxCell>
        <mxCell id="jLjQqsiC2UJIbrjcn-J1-50" value="" style="shape=partialRectangle;collapsible=0;dropTarget=0;pointerEvents=0;fillColor=none;points=[[0,0.5],[1,0.5]];portConstraint=eastwest;top=0;left=0;right=0;bottom=1;" parent="jLjQqsiC2UJIbrjcn-J1-49" vertex="1">
          <mxGeometry y="60" width="310" height="30" as="geometry" />
        </mxCell>
        <mxCell id="jLjQqsiC2UJIbrjcn-J1-51" value="PK, FK" style="shape=partialRectangle;overflow=hidden;connectable=0;fillColor=none;top=0;left=0;bottom=0;right=0;fontStyle=1;" parent="jLjQqsiC2UJIbrjcn-J1-50" vertex="1">
          <mxGeometry width="50" height="30" as="geometry">
            <mxRectangle width="50" height="30" as="alternateBounds" />
          </mxGeometry>
        </mxCell>
        <mxCell id="jLjQqsiC2UJIbrjcn-J1-52" value="ScenariosScenarioID" style="shape=partialRectangle;overflow=hidden;connectable=0;fillColor=none;top=0;left=0;bottom=0;right=0;align=left;spacingLeft=6;fontStyle=5;" parent="jLjQqsiC2UJIbrjcn-J1-50" vertex="1">
          <mxGeometry x="50" width="140" height="30" as="geometry">
            <mxRectangle width="140" height="30" as="alternateBounds" />
          </mxGeometry>
        </mxCell>
        <mxCell id="jLjQqsiC2UJIbrjcn-J1-53" value="integer NOT NULL" style="shape=partialRectangle;overflow=hidden;connectable=0;fillColor=none;top=0;left=0;bottom=0;right=0;align=left;spacingLeft=6;fontStyle=0;" parent="jLjQqsiC2UJIbrjcn-J1-50" vertex="1">
          <mxGeometry x="190" width="120" height="30" as="geometry">
            <mxRectangle width="120" height="30" as="alternateBounds" />
          </mxGeometry>
        </mxCell>
        <mxCell id="jLjQqsiC2UJIbrjcn-J1-66" value="Questions" style="shape=table;startSize=30;container=1;collapsible=1;childLayout=tableLayout;fixedRows=1;rowLines=0;fontStyle=1;align=center;resizeLast=1;" parent="1" vertex="1">
          <mxGeometry x="990" y="300" width="260" height="220" as="geometry" />
        </mxCell>
        <mxCell id="jLjQqsiC2UJIbrjcn-J1-67" value="" style="shape=partialRectangle;collapsible=0;dropTarget=0;pointerEvents=0;fillColor=none;points=[[0,0.5],[1,0.5]];portConstraint=eastwest;top=0;left=0;right=0;bottom=1;" parent="jLjQqsiC2UJIbrjcn-J1-66" vertex="1">
          <mxGeometry y="30" width="260" height="30" as="geometry" />
        </mxCell>
        <mxCell id="jLjQqsiC2UJIbrjcn-J1-68" value="PK" style="shape=partialRectangle;overflow=hidden;connectable=0;fillColor=none;top=0;left=0;bottom=0;right=0;fontStyle=1;" parent="jLjQqsiC2UJIbrjcn-J1-67" vertex="1">
          <mxGeometry width="30" height="30" as="geometry">
            <mxRectangle width="30" height="30" as="alternateBounds" />
          </mxGeometry>
        </mxCell>
        <mxCell id="jLjQqsiC2UJIbrjcn-J1-69" value="QuestionID" style="shape=partialRectangle;overflow=hidden;connectable=0;fillColor=none;top=0;left=0;bottom=0;right=0;align=left;spacingLeft=6;fontStyle=5;" parent="jLjQqsiC2UJIbrjcn-J1-67" vertex="1">
          <mxGeometry x="30" width="100" height="30" as="geometry">
            <mxRectangle width="100" height="30" as="alternateBounds" />
          </mxGeometry>
        </mxCell>
        <mxCell id="jLjQqsiC2UJIbrjcn-J1-70" value="integer NOT NULL" style="shape=partialRectangle;overflow=hidden;connectable=0;fillColor=none;top=0;left=0;bottom=0;right=0;align=left;spacingLeft=6;fontStyle=0;" parent="jLjQqsiC2UJIbrjcn-J1-67" vertex="1">
          <mxGeometry x="130" width="130" height="30" as="geometry">
            <mxRectangle width="130" height="30" as="alternateBounds" />
          </mxGeometry>
        </mxCell>
        <mxCell id="jLjQqsiC2UJIbrjcn-J1-71" value="" style="shape=partialRectangle;collapsible=0;dropTarget=0;pointerEvents=0;fillColor=none;points=[[0,0.5],[1,0.5]];portConstraint=eastwest;top=0;left=0;right=0;bottom=0;" parent="jLjQqsiC2UJIbrjcn-J1-66" vertex="1">
          <mxGeometry y="60" width="260" height="30" as="geometry" />
        </mxCell>
        <mxCell id="jLjQqsiC2UJIbrjcn-J1-72" value="" style="shape=partialRectangle;overflow=hidden;connectable=0;fillColor=none;top=0;left=0;bottom=0;right=0;" parent="jLjQqsiC2UJIbrjcn-J1-71" vertex="1">
          <mxGeometry width="30" height="30" as="geometry">
            <mxRectangle width="30" height="30" as="alternateBounds" />
          </mxGeometry>
        </mxCell>
        <mxCell id="jLjQqsiC2UJIbrjcn-J1-73" value="Difficulty" style="shape=partialRectangle;overflow=hidden;connectable=0;fillColor=none;top=0;left=0;bottom=0;right=0;align=left;spacingLeft=6;" parent="jLjQqsiC2UJIbrjcn-J1-71" vertex="1">
          <mxGeometry x="30" width="100" height="30" as="geometry">
            <mxRectangle width="100" height="30" as="alternateBounds" />
          </mxGeometry>
        </mxCell>
        <mxCell id="jLjQqsiC2UJIbrjcn-J1-74" value="smallint NOT NULL" style="shape=partialRectangle;overflow=hidden;connectable=0;fillColor=none;top=0;left=0;bottom=0;right=0;align=left;spacingLeft=6;" parent="jLjQqsiC2UJIbrjcn-J1-71" vertex="1">
          <mxGeometry x="130" width="130" height="30" as="geometry">
            <mxRectangle width="130" height="30" as="alternateBounds" />
          </mxGeometry>
        </mxCell>
        <mxCell id="jLjQqsiC2UJIbrjcn-J1-75" style="shape=partialRectangle;collapsible=0;dropTarget=0;pointerEvents=0;fillColor=none;points=[[0,0.5],[1,0.5]];portConstraint=eastwest;top=0;left=0;right=0;bottom=0;" parent="jLjQqsiC2UJIbrjcn-J1-66" vertex="1">
          <mxGeometry y="90" width="260" height="30" as="geometry" />
        </mxCell>
        <mxCell id="jLjQqsiC2UJIbrjcn-J1-76" value="" style="shape=partialRectangle;overflow=hidden;connectable=0;fillColor=none;top=0;left=0;bottom=0;right=0;" parent="jLjQqsiC2UJIbrjcn-J1-75" vertex="1">
          <mxGeometry width="30" height="30" as="geometry">
            <mxRectangle width="30" height="30" as="alternateBounds" />
          </mxGeometry>
        </mxCell>
        <mxCell id="jLjQqsiC2UJIbrjcn-J1-77" value="Content" style="shape=partialRectangle;overflow=hidden;connectable=0;fillColor=none;top=0;left=0;bottom=0;right=0;align=left;spacingLeft=6;" parent="jLjQqsiC2UJIbrjcn-J1-75" vertex="1">
          <mxGeometry x="30" width="100" height="30" as="geometry">
            <mxRectangle width="100" height="30" as="alternateBounds" />
          </mxGeometry>
        </mxCell>
        <mxCell id="jLjQqsiC2UJIbrjcn-J1-78" value="text" style="shape=partialRectangle;overflow=hidden;connectable=0;fillColor=none;top=0;left=0;bottom=0;right=0;align=left;spacingLeft=6;" parent="jLjQqsiC2UJIbrjcn-J1-75" vertex="1">
          <mxGeometry x="130" width="130" height="30" as="geometry">
            <mxRectangle width="130" height="30" as="alternateBounds" />
          </mxGeometry>
        </mxCell>
        <mxCell id="jLjQqsiC2UJIbrjcn-J1-87" style="shape=partialRectangle;collapsible=0;dropTarget=0;pointerEvents=0;fillColor=none;points=[[0,0.5],[1,0.5]];portConstraint=eastwest;top=0;left=0;right=0;bottom=0;" parent="jLjQqsiC2UJIbrjcn-J1-66" vertex="1">
          <mxGeometry y="120" width="260" height="30" as="geometry" />
        </mxCell>
        <mxCell id="jLjQqsiC2UJIbrjcn-J1-88" style="shape=partialRectangle;overflow=hidden;connectable=0;fillColor=none;top=0;left=0;bottom=0;right=0;" parent="jLjQqsiC2UJIbrjcn-J1-87" vertex="1">
          <mxGeometry width="30" height="30" as="geometry">
            <mxRectangle width="30" height="30" as="alternateBounds" />
          </mxGeometry>
        </mxCell>
        <mxCell id="jLjQqsiC2UJIbrjcn-J1-89" value="Hint" style="shape=partialRectangle;overflow=hidden;connectable=0;fillColor=none;top=0;left=0;bottom=0;right=0;align=left;spacingLeft=6;" parent="jLjQqsiC2UJIbrjcn-J1-87" vertex="1">
          <mxGeometry x="30" width="100" height="30" as="geometry">
            <mxRectangle width="100" height="30" as="alternateBounds" />
          </mxGeometry>
        </mxCell>
        <mxCell id="jLjQqsiC2UJIbrjcn-J1-90" value="text" style="shape=partialRectangle;overflow=hidden;connectable=0;fillColor=none;top=0;left=0;bottom=0;right=0;align=left;spacingLeft=6;" parent="jLjQqsiC2UJIbrjcn-J1-87" vertex="1">
          <mxGeometry x="130" width="130" height="30" as="geometry">
            <mxRectangle width="130" height="30" as="alternateBounds" />
          </mxGeometry>
        </mxCell>
        <mxCell id="jLjQqsiC2UJIbrjcn-J1-83" style="shape=partialRectangle;collapsible=0;dropTarget=0;pointerEvents=0;fillColor=none;points=[[0,0.5],[1,0.5]];portConstraint=eastwest;top=0;left=0;right=0;bottom=0;" parent="jLjQqsiC2UJIbrjcn-J1-66" vertex="1">
          <mxGeometry y="150" width="260" height="30" as="geometry" />
        </mxCell>
        <mxCell id="jLjQqsiC2UJIbrjcn-J1-84" style="shape=partialRectangle;overflow=hidden;connectable=0;fillColor=none;top=0;left=0;bottom=0;right=0;" parent="jLjQqsiC2UJIbrjcn-J1-83" vertex="1">
          <mxGeometry width="30" height="30" as="geometry">
            <mxRectangle width="30" height="30" as="alternateBounds" />
          </mxGeometry>
        </mxCell>
        <mxCell id="jLjQqsiC2UJIbrjcn-J1-85" value="QuestionType" style="shape=partialRectangle;overflow=hidden;connectable=0;fillColor=none;top=0;left=0;bottom=0;right=0;align=left;spacingLeft=6;" parent="jLjQqsiC2UJIbrjcn-J1-83" vertex="1">
          <mxGeometry x="30" width="100" height="30" as="geometry">
            <mxRectangle width="100" height="30" as="alternateBounds" />
          </mxGeometry>
        </mxCell>
        <mxCell id="jLjQqsiC2UJIbrjcn-J1-86" value="smallint NOT NULL" style="shape=partialRectangle;overflow=hidden;connectable=0;fillColor=none;top=0;left=0;bottom=0;right=0;align=left;spacingLeft=6;" parent="jLjQqsiC2UJIbrjcn-J1-83" vertex="1">
          <mxGeometry x="130" width="130" height="30" as="geometry">
            <mxRectangle width="130" height="30" as="alternateBounds" />
          </mxGeometry>
        </mxCell>
        <mxCell id="jLjQqsiC2UJIbrjcn-J1-79" style="shape=partialRectangle;collapsible=0;dropTarget=0;pointerEvents=0;fillColor=none;points=[[0,0.5],[1,0.5]];portConstraint=eastwest;top=0;left=0;right=0;bottom=0;" parent="jLjQqsiC2UJIbrjcn-J1-66" vertex="1">
          <mxGeometry y="180" width="260" height="30" as="geometry" />
        </mxCell>
        <mxCell id="jLjQqsiC2UJIbrjcn-J1-80" style="shape=partialRectangle;overflow=hidden;connectable=0;fillColor=none;top=0;left=0;bottom=0;right=0;" parent="jLjQqsiC2UJIbrjcn-J1-79" vertex="1">
          <mxGeometry width="30" height="30" as="geometry">
            <mxRectangle width="30" height="30" as="alternateBounds" />
          </mxGeometry>
        </mxCell>
        <mxCell id="jLjQqsiC2UJIbrjcn-J1-81" value="BooleanAnswer" style="shape=partialRectangle;overflow=hidden;connectable=0;fillColor=none;top=0;left=0;bottom=0;right=0;align=left;spacingLeft=6;" parent="jLjQqsiC2UJIbrjcn-J1-79" vertex="1">
          <mxGeometry x="30" width="100" height="30" as="geometry">
            <mxRectangle width="100" height="30" as="alternateBounds" />
          </mxGeometry>
        </mxCell>
        <mxCell id="jLjQqsiC2UJIbrjcn-J1-82" value="boolean" style="shape=partialRectangle;overflow=hidden;connectable=0;fillColor=none;top=0;left=0;bottom=0;right=0;align=left;spacingLeft=6;" parent="jLjQqsiC2UJIbrjcn-J1-79" vertex="1">
          <mxGeometry x="130" width="130" height="30" as="geometry">
            <mxRectangle width="130" height="30" as="alternateBounds" />
          </mxGeometry>
        </mxCell>
        <mxCell id="jLjQqsiC2UJIbrjcn-J1-91" value="Scenarios" style="shape=table;startSize=30;container=1;collapsible=1;childLayout=tableLayout;fixedRows=1;rowLines=0;fontStyle=1;align=center;resizeLast=1;" parent="1" vertex="1">
          <mxGeometry x="350" y="330" width="260" height="130" as="geometry" />
        </mxCell>
        <mxCell id="jLjQqsiC2UJIbrjcn-J1-92" value="" style="shape=partialRectangle;collapsible=0;dropTarget=0;pointerEvents=0;fillColor=none;points=[[0,0.5],[1,0.5]];portConstraint=eastwest;top=0;left=0;right=0;bottom=1;" parent="jLjQqsiC2UJIbrjcn-J1-91" vertex="1">
          <mxGeometry y="30" width="260" height="30" as="geometry" />
        </mxCell>
        <mxCell id="jLjQqsiC2UJIbrjcn-J1-93" value="PK" style="shape=partialRectangle;overflow=hidden;connectable=0;fillColor=none;top=0;left=0;bottom=0;right=0;fontStyle=1;" parent="jLjQqsiC2UJIbrjcn-J1-92" vertex="1">
          <mxGeometry width="30" height="30" as="geometry">
            <mxRectangle width="30" height="30" as="alternateBounds" />
          </mxGeometry>
        </mxCell>
        <mxCell id="jLjQqsiC2UJIbrjcn-J1-94" value="ScenarioID" style="shape=partialRectangle;overflow=hidden;connectable=0;fillColor=none;top=0;left=0;bottom=0;right=0;align=left;spacingLeft=6;fontStyle=5;" parent="jLjQqsiC2UJIbrjcn-J1-92" vertex="1">
          <mxGeometry x="30" width="100" height="30" as="geometry">
            <mxRectangle width="100" height="30" as="alternateBounds" />
          </mxGeometry>
        </mxCell>
        <mxCell id="jLjQqsiC2UJIbrjcn-J1-95" value="integer NOT NULL" style="shape=partialRectangle;overflow=hidden;connectable=0;fillColor=none;top=0;left=0;bottom=0;right=0;align=left;spacingLeft=6;fontStyle=0;" parent="jLjQqsiC2UJIbrjcn-J1-92" vertex="1">
          <mxGeometry x="130" width="130" height="30" as="geometry">
            <mxRectangle width="130" height="30" as="alternateBounds" />
          </mxGeometry>
        </mxCell>
        <mxCell id="jLjQqsiC2UJIbrjcn-J1-96" value="" style="shape=partialRectangle;collapsible=0;dropTarget=0;pointerEvents=0;fillColor=none;points=[[0,0.5],[1,0.5]];portConstraint=eastwest;top=0;left=0;right=0;bottom=0;" parent="jLjQqsiC2UJIbrjcn-J1-91" vertex="1">
          <mxGeometry y="60" width="260" height="30" as="geometry" />
        </mxCell>
        <mxCell id="jLjQqsiC2UJIbrjcn-J1-97" value="" style="shape=partialRectangle;overflow=hidden;connectable=0;fillColor=none;top=0;left=0;bottom=0;right=0;" parent="jLjQqsiC2UJIbrjcn-J1-96" vertex="1">
          <mxGeometry width="30" height="30" as="geometry">
            <mxRectangle width="30" height="30" as="alternateBounds" />
          </mxGeometry>
        </mxCell>
        <mxCell id="jLjQqsiC2UJIbrjcn-J1-98" value="Name" style="shape=partialRectangle;overflow=hidden;connectable=0;fillColor=none;top=0;left=0;bottom=0;right=0;align=left;spacingLeft=6;" parent="jLjQqsiC2UJIbrjcn-J1-96" vertex="1">
          <mxGeometry x="30" width="100" height="30" as="geometry">
            <mxRectangle width="100" height="30" as="alternateBounds" />
          </mxGeometry>
        </mxCell>
        <mxCell id="jLjQqsiC2UJIbrjcn-J1-99" value="text" style="shape=partialRectangle;overflow=hidden;connectable=0;fillColor=none;top=0;left=0;bottom=0;right=0;align=left;spacingLeft=6;" parent="jLjQqsiC2UJIbrjcn-J1-96" vertex="1">
          <mxGeometry x="130" width="130" height="30" as="geometry">
            <mxRectangle width="130" height="30" as="alternateBounds" />
          </mxGeometry>
        </mxCell>
        <mxCell id="jLjQqsiC2UJIbrjcn-J1-100" style="shape=partialRectangle;collapsible=0;dropTarget=0;pointerEvents=0;fillColor=none;points=[[0,0.5],[1,0.5]];portConstraint=eastwest;top=0;left=0;right=0;bottom=0;" parent="jLjQqsiC2UJIbrjcn-J1-91" vertex="1">
          <mxGeometry y="90" width="260" height="30" as="geometry" />
        </mxCell>
        <mxCell id="jLjQqsiC2UJIbrjcn-J1-101" value="FK" style="shape=partialRectangle;overflow=hidden;connectable=0;fillColor=none;top=0;left=0;bottom=0;right=0;" parent="jLjQqsiC2UJIbrjcn-J1-100" vertex="1">
          <mxGeometry width="30" height="30" as="geometry">
            <mxRectangle width="30" height="30" as="alternateBounds" />
          </mxGeometry>
        </mxCell>
        <mxCell id="jLjQqsiC2UJIbrjcn-J1-102" value="TopicID" style="shape=partialRectangle;overflow=hidden;connectable=0;fillColor=none;top=0;left=0;bottom=0;right=0;align=left;spacingLeft=6;" parent="jLjQqsiC2UJIbrjcn-J1-100" vertex="1">
          <mxGeometry x="30" width="100" height="30" as="geometry">
            <mxRectangle width="100" height="30" as="alternateBounds" />
          </mxGeometry>
        </mxCell>
        <mxCell id="jLjQqsiC2UJIbrjcn-J1-103" value="integer" style="shape=partialRectangle;overflow=hidden;connectable=0;fillColor=none;top=0;left=0;bottom=0;right=0;align=left;spacingLeft=6;" parent="jLjQqsiC2UJIbrjcn-J1-100" vertex="1">
          <mxGeometry x="130" width="130" height="30" as="geometry">
            <mxRectangle width="130" height="30" as="alternateBounds" />
          </mxGeometry>
        </mxCell>
        <mxCell id="jLjQqsiC2UJIbrjcn-J1-104" value="Students" style="shape=table;startSize=30;container=1;collapsible=1;childLayout=tableLayout;fixedRows=1;rowLines=0;fontStyle=1;align=center;resizeLast=1;" parent="1" vertex="1">
          <mxGeometry x="30" y="410" width="260" height="190" as="geometry" />
        </mxCell>
        <mxCell id="jLjQqsiC2UJIbrjcn-J1-105" value="" style="shape=partialRectangle;collapsible=0;dropTarget=0;pointerEvents=0;fillColor=none;points=[[0,0.5],[1,0.5]];portConstraint=eastwest;top=0;left=0;right=0;bottom=1;" parent="jLjQqsiC2UJIbrjcn-J1-104" vertex="1">
          <mxGeometry y="30" width="260" height="30" as="geometry" />
        </mxCell>
        <mxCell id="jLjQqsiC2UJIbrjcn-J1-106" value="PK" style="shape=partialRectangle;overflow=hidden;connectable=0;fillColor=none;top=0;left=0;bottom=0;right=0;fontStyle=1;" parent="jLjQqsiC2UJIbrjcn-J1-105" vertex="1">
          <mxGeometry width="30" height="30" as="geometry">
            <mxRectangle width="30" height="30" as="alternateBounds" />
          </mxGeometry>
        </mxCell>
        <mxCell id="jLjQqsiC2UJIbrjcn-J1-107" value="StudentID" style="shape=partialRectangle;overflow=hidden;connectable=0;fillColor=none;top=0;left=0;bottom=0;right=0;align=left;spacingLeft=6;fontStyle=5;" parent="jLjQqsiC2UJIbrjcn-J1-105" vertex="1">
          <mxGeometry x="30" width="100" height="30" as="geometry">
            <mxRectangle width="100" height="30" as="alternateBounds" />
          </mxGeometry>
        </mxCell>
        <mxCell id="jLjQqsiC2UJIbrjcn-J1-108" value="integer NOT NULL" style="shape=partialRectangle;overflow=hidden;connectable=0;fillColor=none;top=0;left=0;bottom=0;right=0;align=left;spacingLeft=6;fontStyle=0;" parent="jLjQqsiC2UJIbrjcn-J1-105" vertex="1">
          <mxGeometry x="130" width="130" height="30" as="geometry">
            <mxRectangle width="130" height="30" as="alternateBounds" />
          </mxGeometry>
        </mxCell>
        <mxCell id="jLjQqsiC2UJIbrjcn-J1-109" value="" style="shape=partialRectangle;collapsible=0;dropTarget=0;pointerEvents=0;fillColor=none;points=[[0,0.5],[1,0.5]];portConstraint=eastwest;top=0;left=0;right=0;bottom=0;" parent="jLjQqsiC2UJIbrjcn-J1-104" vertex="1">
          <mxGeometry y="60" width="260" height="30" as="geometry" />
        </mxCell>
        <mxCell id="jLjQqsiC2UJIbrjcn-J1-110" value="" style="shape=partialRectangle;overflow=hidden;connectable=0;fillColor=none;top=0;left=0;bottom=0;right=0;" parent="jLjQqsiC2UJIbrjcn-J1-109" vertex="1">
          <mxGeometry width="30" height="30" as="geometry">
            <mxRectangle width="30" height="30" as="alternateBounds" />
          </mxGeometry>
        </mxCell>
        <mxCell id="jLjQqsiC2UJIbrjcn-J1-111" value="LastName" style="shape=partialRectangle;overflow=hidden;connectable=0;fillColor=none;top=0;left=0;bottom=0;right=0;align=left;spacingLeft=6;" parent="jLjQqsiC2UJIbrjcn-J1-109" vertex="1">
          <mxGeometry x="30" width="100" height="30" as="geometry">
            <mxRectangle width="100" height="30" as="alternateBounds" />
          </mxGeometry>
        </mxCell>
        <mxCell id="jLjQqsiC2UJIbrjcn-J1-112" value="text" style="shape=partialRectangle;overflow=hidden;connectable=0;fillColor=none;top=0;left=0;bottom=0;right=0;align=left;spacingLeft=6;" parent="jLjQqsiC2UJIbrjcn-J1-109" vertex="1">
          <mxGeometry x="130" width="130" height="30" as="geometry">
            <mxRectangle width="130" height="30" as="alternateBounds" />
          </mxGeometry>
        </mxCell>
        <mxCell id="jLjQqsiC2UJIbrjcn-J1-113" style="shape=partialRectangle;collapsible=0;dropTarget=0;pointerEvents=0;fillColor=none;points=[[0,0.5],[1,0.5]];portConstraint=eastwest;top=0;left=0;right=0;bottom=0;" parent="jLjQqsiC2UJIbrjcn-J1-104" vertex="1">
          <mxGeometry y="90" width="260" height="30" as="geometry" />
        </mxCell>
        <mxCell id="jLjQqsiC2UJIbrjcn-J1-114" value="" style="shape=partialRectangle;overflow=hidden;connectable=0;fillColor=none;top=0;left=0;bottom=0;right=0;" parent="jLjQqsiC2UJIbrjcn-J1-113" vertex="1">
          <mxGeometry width="30" height="30" as="geometry">
            <mxRectangle width="30" height="30" as="alternateBounds" />
          </mxGeometry>
        </mxCell>
        <mxCell id="jLjQqsiC2UJIbrjcn-J1-115" value="FirstName" style="shape=partialRectangle;overflow=hidden;connectable=0;fillColor=none;top=0;left=0;bottom=0;right=0;align=left;spacingLeft=6;" parent="jLjQqsiC2UJIbrjcn-J1-113" vertex="1">
          <mxGeometry x="30" width="100" height="30" as="geometry">
            <mxRectangle width="100" height="30" as="alternateBounds" />
          </mxGeometry>
        </mxCell>
        <mxCell id="jLjQqsiC2UJIbrjcn-J1-116" value="text" style="shape=partialRectangle;overflow=hidden;connectable=0;fillColor=none;top=0;left=0;bottom=0;right=0;align=left;spacingLeft=6;" parent="jLjQqsiC2UJIbrjcn-J1-113" vertex="1">
          <mxGeometry x="130" width="130" height="30" as="geometry">
            <mxRectangle width="130" height="30" as="alternateBounds" />
          </mxGeometry>
        </mxCell>
        <mxCell id="jLjQqsiC2UJIbrjcn-J1-121" style="shape=partialRectangle;collapsible=0;dropTarget=0;pointerEvents=0;fillColor=none;points=[[0,0.5],[1,0.5]];portConstraint=eastwest;top=0;left=0;right=0;bottom=0;" parent="jLjQqsiC2UJIbrjcn-J1-104" vertex="1">
          <mxGeometry y="120" width="260" height="30" as="geometry" />
        </mxCell>
        <mxCell id="jLjQqsiC2UJIbrjcn-J1-122" style="shape=partialRectangle;overflow=hidden;connectable=0;fillColor=none;top=0;left=0;bottom=0;right=0;" parent="jLjQqsiC2UJIbrjcn-J1-121" vertex="1">
          <mxGeometry width="30" height="30" as="geometry">
            <mxRectangle width="30" height="30" as="alternateBounds" />
          </mxGeometry>
        </mxCell>
        <mxCell id="jLjQqsiC2UJIbrjcn-J1-123" value="Email" style="shape=partialRectangle;overflow=hidden;connectable=0;fillColor=none;top=0;left=0;bottom=0;right=0;align=left;spacingLeft=6;" parent="jLjQqsiC2UJIbrjcn-J1-121" vertex="1">
          <mxGeometry x="30" width="100" height="30" as="geometry">
            <mxRectangle width="100" height="30" as="alternateBounds" />
          </mxGeometry>
        </mxCell>
        <mxCell id="jLjQqsiC2UJIbrjcn-J1-124" value="text" style="shape=partialRectangle;overflow=hidden;connectable=0;fillColor=none;top=0;left=0;bottom=0;right=0;align=left;spacingLeft=6;" parent="jLjQqsiC2UJIbrjcn-J1-121" vertex="1">
          <mxGeometry x="130" width="130" height="30" as="geometry">
            <mxRectangle width="130" height="30" as="alternateBounds" />
          </mxGeometry>
        </mxCell>
        <mxCell id="jLjQqsiC2UJIbrjcn-J1-117" style="shape=partialRectangle;collapsible=0;dropTarget=0;pointerEvents=0;fillColor=none;points=[[0,0.5],[1,0.5]];portConstraint=eastwest;top=0;left=0;right=0;bottom=0;" parent="jLjQqsiC2UJIbrjcn-J1-104" vertex="1">
          <mxGeometry y="150" width="260" height="30" as="geometry" />
        </mxCell>
        <mxCell id="jLjQqsiC2UJIbrjcn-J1-118" value="FK" style="shape=partialRectangle;overflow=hidden;connectable=0;fillColor=none;top=0;left=0;bottom=0;right=0;" parent="jLjQqsiC2UJIbrjcn-J1-117" vertex="1">
          <mxGeometry width="30" height="30" as="geometry">
            <mxRectangle width="30" height="30" as="alternateBounds" />
          </mxGeometry>
        </mxCell>
        <mxCell id="jLjQqsiC2UJIbrjcn-J1-119" value="ClassID" style="shape=partialRectangle;overflow=hidden;connectable=0;fillColor=none;top=0;left=0;bottom=0;right=0;align=left;spacingLeft=6;" parent="jLjQqsiC2UJIbrjcn-J1-117" vertex="1">
          <mxGeometry x="30" width="100" height="30" as="geometry">
            <mxRectangle width="100" height="30" as="alternateBounds" />
          </mxGeometry>
        </mxCell>
        <mxCell id="jLjQqsiC2UJIbrjcn-J1-120" value="integer" style="shape=partialRectangle;overflow=hidden;connectable=0;fillColor=none;top=0;left=0;bottom=0;right=0;align=left;spacingLeft=6;" parent="jLjQqsiC2UJIbrjcn-J1-117" vertex="1">
          <mxGeometry x="130" width="130" height="30" as="geometry">
            <mxRectangle width="130" height="30" as="alternateBounds" />
          </mxGeometry>
        </mxCell>
        <mxCell id="jLjQqsiC2UJIbrjcn-J1-125" value="Teacher" style="shape=table;startSize=30;container=1;collapsible=1;childLayout=tableLayout;fixedRows=1;rowLines=0;fontStyle=1;align=center;resizeLast=1;" parent="1" vertex="1">
          <mxGeometry x="350" y="90" width="260" height="60" as="geometry" />
        </mxCell>
        <mxCell id="jLjQqsiC2UJIbrjcn-J1-126" value="" style="shape=partialRectangle;collapsible=0;dropTarget=0;pointerEvents=0;fillColor=none;points=[[0,0.5],[1,0.5]];portConstraint=eastwest;top=0;left=0;right=0;bottom=1;" parent="jLjQqsiC2UJIbrjcn-J1-125" vertex="1">
          <mxGeometry y="30" width="260" height="30" as="geometry" />
        </mxCell>
        <mxCell id="jLjQqsiC2UJIbrjcn-J1-127" value="PK" style="shape=partialRectangle;overflow=hidden;connectable=0;fillColor=none;top=0;left=0;bottom=0;right=0;fontStyle=1;" parent="jLjQqsiC2UJIbrjcn-J1-126" vertex="1">
          <mxGeometry width="30" height="30" as="geometry">
            <mxRectangle width="30" height="30" as="alternateBounds" />
          </mxGeometry>
        </mxCell>
        <mxCell id="jLjQqsiC2UJIbrjcn-J1-128" value="TeacherID" style="shape=partialRectangle;overflow=hidden;connectable=0;fillColor=none;top=0;left=0;bottom=0;right=0;align=left;spacingLeft=6;fontStyle=5;" parent="jLjQqsiC2UJIbrjcn-J1-126" vertex="1">
          <mxGeometry x="30" width="100" height="30" as="geometry">
            <mxRectangle width="100" height="30" as="alternateBounds" />
          </mxGeometry>
        </mxCell>
        <mxCell id="jLjQqsiC2UJIbrjcn-J1-129" value="integer NOT NULL" style="shape=partialRectangle;overflow=hidden;connectable=0;fillColor=none;top=0;left=0;bottom=0;right=0;align=left;spacingLeft=6;fontStyle=0;" parent="jLjQqsiC2UJIbrjcn-J1-126" vertex="1">
          <mxGeometry x="130" width="130" height="30" as="geometry">
            <mxRectangle width="130" height="30" as="alternateBounds" />
          </mxGeometry>
        </mxCell>
        <mxCell id="jLjQqsiC2UJIbrjcn-J1-138" value="Topics" style="shape=table;startSize=30;container=1;collapsible=1;childLayout=tableLayout;fixedRows=1;rowLines=0;fontStyle=1;align=center;resizeLast=1;" parent="1" vertex="1">
          <mxGeometry x="350" y="180" width="260" height="130" as="geometry" />
        </mxCell>
        <mxCell id="jLjQqsiC2UJIbrjcn-J1-139" value="" style="shape=partialRectangle;collapsible=0;dropTarget=0;pointerEvents=0;fillColor=none;points=[[0,0.5],[1,0.5]];portConstraint=eastwest;top=0;left=0;right=0;bottom=1;" parent="jLjQqsiC2UJIbrjcn-J1-138" vertex="1">
          <mxGeometry y="30" width="260" height="30" as="geometry" />
        </mxCell>
        <mxCell id="jLjQqsiC2UJIbrjcn-J1-140" value="PK" style="shape=partialRectangle;overflow=hidden;connectable=0;fillColor=none;top=0;left=0;bottom=0;right=0;fontStyle=1;" parent="jLjQqsiC2UJIbrjcn-J1-139" vertex="1">
          <mxGeometry width="30" height="30" as="geometry">
            <mxRectangle width="30" height="30" as="alternateBounds" />
          </mxGeometry>
        </mxCell>
        <mxCell id="jLjQqsiC2UJIbrjcn-J1-141" value="TopicID" style="shape=partialRectangle;overflow=hidden;connectable=0;fillColor=none;top=0;left=0;bottom=0;right=0;align=left;spacingLeft=6;fontStyle=5;" parent="jLjQqsiC2UJIbrjcn-J1-139" vertex="1">
          <mxGeometry x="30" width="100" height="30" as="geometry">
            <mxRectangle width="100" height="30" as="alternateBounds" />
          </mxGeometry>
        </mxCell>
        <mxCell id="jLjQqsiC2UJIbrjcn-J1-142" value="integer NOT NULL" style="shape=partialRectangle;overflow=hidden;connectable=0;fillColor=none;top=0;left=0;bottom=0;right=0;align=left;spacingLeft=6;fontStyle=0;" parent="jLjQqsiC2UJIbrjcn-J1-139" vertex="1">
          <mxGeometry x="130" width="130" height="30" as="geometry">
            <mxRectangle width="130" height="30" as="alternateBounds" />
          </mxGeometry>
        </mxCell>
        <mxCell id="jLjQqsiC2UJIbrjcn-J1-143" value="" style="shape=partialRectangle;collapsible=0;dropTarget=0;pointerEvents=0;fillColor=none;points=[[0,0.5],[1,0.5]];portConstraint=eastwest;top=0;left=0;right=0;bottom=0;" parent="jLjQqsiC2UJIbrjcn-J1-138" vertex="1">
          <mxGeometry y="60" width="260" height="30" as="geometry" />
        </mxCell>
        <mxCell id="jLjQqsiC2UJIbrjcn-J1-144" value="" style="shape=partialRectangle;overflow=hidden;connectable=0;fillColor=none;top=0;left=0;bottom=0;right=0;" parent="jLjQqsiC2UJIbrjcn-J1-143" vertex="1">
          <mxGeometry width="30" height="30" as="geometry">
            <mxRectangle width="30" height="30" as="alternateBounds" />
          </mxGeometry>
        </mxCell>
        <mxCell id="jLjQqsiC2UJIbrjcn-J1-145" value="TopicName" style="shape=partialRectangle;overflow=hidden;connectable=0;fillColor=none;top=0;left=0;bottom=0;right=0;align=left;spacingLeft=6;" parent="jLjQqsiC2UJIbrjcn-J1-143" vertex="1">
          <mxGeometry x="30" width="100" height="30" as="geometry">
            <mxRectangle width="100" height="30" as="alternateBounds" />
          </mxGeometry>
        </mxCell>
        <mxCell id="jLjQqsiC2UJIbrjcn-J1-146" value="text" style="shape=partialRectangle;overflow=hidden;connectable=0;fillColor=none;top=0;left=0;bottom=0;right=0;align=left;spacingLeft=6;" parent="jLjQqsiC2UJIbrjcn-J1-143" vertex="1">
          <mxGeometry x="130" width="130" height="30" as="geometry">
            <mxRectangle width="130" height="30" as="alternateBounds" />
          </mxGeometry>
        </mxCell>
        <mxCell id="jLjQqsiC2UJIbrjcn-J1-147" style="shape=partialRectangle;collapsible=0;dropTarget=0;pointerEvents=0;fillColor=none;points=[[0,0.5],[1,0.5]];portConstraint=eastwest;top=0;left=0;right=0;bottom=0;" parent="jLjQqsiC2UJIbrjcn-J1-138" vertex="1">
          <mxGeometry y="90" width="260" height="30" as="geometry" />
        </mxCell>
        <mxCell id="jLjQqsiC2UJIbrjcn-J1-148" value="FK" style="shape=partialRectangle;overflow=hidden;connectable=0;fillColor=none;top=0;left=0;bottom=0;right=0;" parent="jLjQqsiC2UJIbrjcn-J1-147" vertex="1">
          <mxGeometry width="30" height="30" as="geometry">
            <mxRectangle width="30" height="30" as="alternateBounds" />
          </mxGeometry>
        </mxCell>
        <mxCell id="jLjQqsiC2UJIbrjcn-J1-149" value="TeacherID" style="shape=partialRectangle;overflow=hidden;connectable=0;fillColor=none;top=0;left=0;bottom=0;right=0;align=left;spacingLeft=6;" parent="jLjQqsiC2UJIbrjcn-J1-147" vertex="1">
          <mxGeometry x="30" width="100" height="30" as="geometry">
            <mxRectangle width="100" height="30" as="alternateBounds" />
          </mxGeometry>
        </mxCell>
        <mxCell id="jLjQqsiC2UJIbrjcn-J1-150" value="integer" style="shape=partialRectangle;overflow=hidden;connectable=0;fillColor=none;top=0;left=0;bottom=0;right=0;align=left;spacingLeft=6;" parent="jLjQqsiC2UJIbrjcn-J1-147" vertex="1">
          <mxGeometry x="130" width="130" height="30" as="geometry">
            <mxRectangle width="130" height="30" as="alternateBounds" />
          </mxGeometry>
        </mxCell>
        <mxCell id="jLjQqsiC2UJIbrjcn-J1-168" value="" style="edgeStyle=entityRelationEdgeStyle;fontSize=12;html=1;endArrow=ERoneToMany;startArrow=ERmandOne;rounded=0;entryX=1;entryY=0.5;entryDx=0;entryDy=0;" parent="1" source="jLjQqsiC2UJIbrjcn-J1-67" target="jLjQqsiC2UJIbrjcn-J1-62" edge="1">
          <mxGeometry width="100" height="100" relative="1" as="geometry">
            <mxPoint x="1130" y="740" as="sourcePoint" />
            <mxPoint x="1230" y="640" as="targetPoint" />
          </mxGeometry>
        </mxCell>
        <mxCell id="jLjQqsiC2UJIbrjcn-J1-171" value="" style="edgeStyle=entityRelationEdgeStyle;fontSize=12;html=1;endArrow=ERzeroToMany;startArrow=ERmandOne;rounded=0;exitX=1;exitY=0.5;exitDx=0;exitDy=0;entryX=0;entryY=0.5;entryDx=0;entryDy=0;" parent="1" source="jLjQqsiC2UJIbrjcn-J1-92" target="jLjQqsiC2UJIbrjcn-J1-50" edge="1">
          <mxGeometry width="100" height="100" relative="1" as="geometry">
            <mxPoint x="1170" y="740" as="sourcePoint" />
            <mxPoint x="1270" y="640" as="targetPoint" />
          </mxGeometry>
        </mxCell>
        <mxCell id="jLjQqsiC2UJIbrjcn-J1-172" value="" style="edgeStyle=elbowEdgeStyle;fontSize=12;html=1;endArrow=ERzeroToMany;startArrow=ERmandOne;rounded=0;exitX=0;exitY=0.5;exitDx=0;exitDy=0;entryX=0;entryY=0.5;entryDx=0;entryDy=0;" parent="1" source="jLjQqsiC2UJIbrjcn-J1-92" target="jLjQqsiC2UJIbrjcn-J1-41" edge="1">
          <mxGeometry width="100" height="100" relative="1" as="geometry">
            <mxPoint x="700" y="715" as="sourcePoint" />
            <mxPoint x="700" y="635" as="targetPoint" />
            <Array as="points">
              <mxPoint x="320" y="520" />
              <mxPoint x="310" y="460" />
            </Array>
          </mxGeometry>
        </mxCell>
        <mxCell id="jLjQqsiC2UJIbrjcn-J1-174" value="" style="edgeStyle=orthogonalEdgeStyle;fontSize=12;html=1;endArrow=ERzeroToMany;startArrow=ERmandOne;rounded=0;exitX=1;exitY=0.5;exitDx=0;exitDy=0;entryX=0;entryY=0.5;entryDx=0;entryDy=0;" parent="1" source="jLjQqsiC2UJIbrjcn-J1-105" target="jLjQqsiC2UJIbrjcn-J1-45" edge="1">
          <mxGeometry width="100" height="100" relative="1" as="geometry">
            <mxPoint x="350" y="940" as="sourcePoint" />
            <mxPoint x="310" y="940" as="targetPoint" />
            <Array as="points">
              <mxPoint x="310" y="455" />
              <mxPoint x="310" y="575" />
            </Array>
          </mxGeometry>
        </mxCell>
        <mxCell id="jLjQqsiC2UJIbrjcn-J1-175" value="" style="edgeStyle=elbowEdgeStyle;fontSize=12;html=1;endArrow=ERzeroToMany;startArrow=ERmandOne;rounded=0;exitX=0;exitY=0.5;exitDx=0;exitDy=0;entryX=0;entryY=0.5;entryDx=0;entryDy=0;" parent="1" source="jLjQqsiC2UJIbrjcn-J1-139" target="jLjQqsiC2UJIbrjcn-J1-100" edge="1">
          <mxGeometry width="100" height="100" relative="1" as="geometry">
            <mxPoint x="750" y="725" as="sourcePoint" />
            <mxPoint x="820" y="880" as="targetPoint" />
            <Array as="points">
              <mxPoint x="310" y="400" />
              <mxPoint x="300" y="380" />
              <mxPoint x="290" y="330" />
            </Array>
          </mxGeometry>
        </mxCell>
        <mxCell id="jLjQqsiC2UJIbrjcn-J1-176" value="" style="edgeStyle=entityRelationEdgeStyle;fontSize=12;html=1;endArrow=ERzeroToMany;startArrow=ERmandOne;rounded=0;exitX=1;exitY=0.5;exitDx=0;exitDy=0;" parent="1" source="jLjQqsiC2UJIbrjcn-J1-126" target="jLjQqsiC2UJIbrjcn-J1-147" edge="1">
          <mxGeometry width="100" height="100" relative="1" as="geometry">
            <mxPoint x="710" y="885" as="sourcePoint" />
            <mxPoint x="750" y="805" as="targetPoint" />
          </mxGeometry>
        </mxCell>
        <mxCell id="jLjQqsiC2UJIbrjcn-J1-177" value="" style="edgeStyle=entityRelationEdgeStyle;fontSize=12;html=1;endArrow=ERzeroToMany;startArrow=ERmandOne;rounded=0;exitX=0;exitY=0.5;exitDx=0;exitDy=0;entryX=1;entryY=0.5;entryDx=0;entryDy=0;" parent="1" source="jLjQqsiC2UJIbrjcn-J1-126" target="jLjQqsiC2UJIbrjcn-J1-24" edge="1">
          <mxGeometry width="100" height="100" relative="1" as="geometry">
            <mxPoint x="700" y="535" as="sourcePoint" />
            <mxPoint x="310" y="155" as="targetPoint" />
          </mxGeometry>
        </mxCell>
        <mxCell id="jLjQqsiC2UJIbrjcn-J1-178" value="" style="edgeStyle=orthogonalEdgeStyle;fontSize=12;html=1;endArrow=ERzeroToMany;startArrow=ERmandOne;rounded=0;exitX=0;exitY=0.5;exitDx=0;exitDy=0;entryX=0;entryY=0.5;entryDx=0;entryDy=0;" parent="1" source="jLjQqsiC2UJIbrjcn-J1-24" target="jLjQqsiC2UJIbrjcn-J1-117" edge="1">
          <mxGeometry width="100" height="100" relative="1" as="geometry">
            <mxPoint x="-170" y="170" as="sourcePoint" />
            <mxPoint x="-200" y="590" as="targetPoint" />
            <Array as="points">
              <mxPoint x="10" y="135" />
              <mxPoint x="10" y="575" />
            </Array>
          </mxGeometry>
        </mxCell>
        <mxCell id="jLjQqsiC2UJIbrjcn-J1-180" value="" style="edgeStyle=entityRelationEdgeStyle;fontSize=12;html=1;endArrow=ERzeroToMany;startArrow=ERmandOne;rounded=0;entryX=1;entryY=0.5;entryDx=0;entryDy=0;exitX=1;exitY=0.5;exitDx=0;exitDy=0;" parent="1" source="jLjQqsiC2UJIbrjcn-J1-67" target="jLjQqsiC2UJIbrjcn-J1-11" edge="1">
          <mxGeometry width="100" height="100" relative="1" as="geometry">
            <mxPoint x="1500" y="345" as="sourcePoint" />
            <mxPoint x="1650" y="710" as="targetPoint" />
          </mxGeometry>
        </mxCell>
        <mxCell id="jLjQqsiC2UJIbrjcn-J1-195" value="" style="group" parent="1" vertex="1" connectable="0">
          <mxGeometry x="940" y="30" width="380" height="130" as="geometry" />
        </mxCell>
        <mxCell id="jLjQqsiC2UJIbrjcn-J1-196" value="" style="group" parent="jLjQqsiC2UJIbrjcn-J1-195" vertex="1" connectable="0">
          <mxGeometry x="-35" width="380" height="130" as="geometry" />
        </mxCell>
        <mxCell id="jLjQqsiC2UJIbrjcn-J1-164" value="&lt;b&gt;&lt;br&gt;&lt;br&gt;&lt;br&gt;&lt;br&gt;&lt;br&gt;&lt;br&gt;&lt;br&gt;&lt;br&gt;System tables&lt;/b&gt;" style="rounded=0;whiteSpace=wrap;html=1;fillColor=#CCFFE6;align=right;" parent="jLjQqsiC2UJIbrjcn-J1-196" vertex="1">
          <mxGeometry width="380" height="130" as="geometry" />
        </mxCell>
        <mxCell id="jLjQqsiC2UJIbrjcn-J1-151" value="__EFMigrationsHistory" style="shape=table;startSize=30;container=1;collapsible=1;childLayout=tableLayout;fixedRows=1;rowLines=0;fontStyle=1;align=center;resizeLast=1;fillColor=#FFFFFF;" parent="jLjQqsiC2UJIbrjcn-J1-196" vertex="1">
          <mxGeometry x="10" y="10" width="360" height="90" as="geometry" />
        </mxCell>
        <mxCell id="jLjQqsiC2UJIbrjcn-J1-152" value="" style="shape=partialRectangle;collapsible=0;dropTarget=0;pointerEvents=0;fillColor=none;points=[[0,0.5],[1,0.5]];portConstraint=eastwest;top=0;left=0;right=0;bottom=1;" parent="jLjQqsiC2UJIbrjcn-J1-151" vertex="1">
          <mxGeometry y="30" width="360" height="30" as="geometry" />
        </mxCell>
        <mxCell id="jLjQqsiC2UJIbrjcn-J1-153" value="PK" style="shape=partialRectangle;overflow=hidden;connectable=0;fillColor=#FFFFFF;top=0;left=0;bottom=0;right=0;fontStyle=1;" parent="jLjQqsiC2UJIbrjcn-J1-152" vertex="1">
          <mxGeometry width="30" height="30" as="geometry">
            <mxRectangle width="30" height="30" as="alternateBounds" />
          </mxGeometry>
        </mxCell>
        <mxCell id="jLjQqsiC2UJIbrjcn-J1-154" value="MigrationID" style="shape=partialRectangle;overflow=hidden;connectable=0;fillColor=#FFFFFF;top=0;left=0;bottom=0;right=0;align=left;spacingLeft=6;fontStyle=5;" parent="jLjQqsiC2UJIbrjcn-J1-152" vertex="1">
          <mxGeometry x="30" width="120" height="30" as="geometry">
            <mxRectangle width="120" height="30" as="alternateBounds" />
          </mxGeometry>
        </mxCell>
        <mxCell id="jLjQqsiC2UJIbrjcn-J1-155" value="character varying(150) NOT NULL" style="shape=partialRectangle;overflow=hidden;connectable=0;fillColor=#FFFFFF;top=0;left=0;bottom=0;right=0;align=left;spacingLeft=6;fontStyle=0;" parent="jLjQqsiC2UJIbrjcn-J1-152" vertex="1">
          <mxGeometry x="150" width="210" height="30" as="geometry">
            <mxRectangle width="210" height="30" as="alternateBounds" />
          </mxGeometry>
        </mxCell>
        <mxCell id="jLjQqsiC2UJIbrjcn-J1-156" value="" style="shape=partialRectangle;collapsible=0;dropTarget=0;pointerEvents=0;fillColor=none;points=[[0,0.5],[1,0.5]];portConstraint=eastwest;top=0;left=0;right=0;bottom=0;" parent="jLjQqsiC2UJIbrjcn-J1-151" vertex="1">
          <mxGeometry y="60" width="360" height="30" as="geometry" />
        </mxCell>
        <mxCell id="jLjQqsiC2UJIbrjcn-J1-157" value="" style="shape=partialRectangle;overflow=hidden;connectable=0;fillColor=#FFFFFF;top=0;left=0;bottom=0;right=0;" parent="jLjQqsiC2UJIbrjcn-J1-156" vertex="1">
          <mxGeometry width="30" height="30" as="geometry">
            <mxRectangle width="30" height="30" as="alternateBounds" />
          </mxGeometry>
        </mxCell>
        <mxCell id="jLjQqsiC2UJIbrjcn-J1-158" value="ProductVersion" style="shape=partialRectangle;overflow=hidden;connectable=0;fillColor=#FFFFFF;top=0;left=0;bottom=0;right=0;align=left;spacingLeft=6;" parent="jLjQqsiC2UJIbrjcn-J1-156" vertex="1">
          <mxGeometry x="30" width="120" height="30" as="geometry">
            <mxRectangle width="120" height="30" as="alternateBounds" />
          </mxGeometry>
        </mxCell>
        <mxCell id="jLjQqsiC2UJIbrjcn-J1-159" value="character varying(32) NOT NULL" style="shape=partialRectangle;overflow=hidden;connectable=0;fillColor=#FFFFFF;top=0;left=0;bottom=0;right=0;align=left;spacingLeft=6;" parent="jLjQqsiC2UJIbrjcn-J1-156" vertex="1">
          <mxGeometry x="150" width="210" height="30" as="geometry">
            <mxRectangle width="210" height="30" as="alternateBounds" />
          </mxGeometry>
        </mxCell>
        <mxCell id="w6kut3IaZzrMgc4eCilm-1" value="&lt;font style=&quot;font-size: 24px&quot;&gt;Resulting ER diagram&lt;/font&gt;" style="text;html=1;strokeColor=none;fillColor=none;align=center;verticalAlign=middle;whiteSpace=wrap;rounded=0;" parent="1" vertex="1">
          <mxGeometry width="1280" height="30" as="geometry" />
        </mxCell>
      </root>
    </mxGraphModel>
  </diagram>
  <diagram id="yDvsKQc3dD8VfJMmF2fE" name="Proto">
    <mxGraphModel dx="646" dy="334" grid="1" gridSize="10" guides="1" tooltips="1" connect="1" arrows="1" fold="1" page="1" pageScale="1" pageWidth="1169" pageHeight="827" math="0" shadow="0">
      <root>
        <mxCell id="Rvfwl3uPpjRhTl-PB7od-0" />
        <mxCell id="Rvfwl3uPpjRhTl-PB7od-1" parent="Rvfwl3uPpjRhTl-PB7od-0" />
        <mxCell id="Rvfwl3uPpjRhTl-PB7od-26" value="loop" style="shape=umlFrame;whiteSpace=wrap;html=1;width=40;height=20;boundedLbl=1;verticalAlign=middle;align=left;spacingLeft=5;" parent="Rvfwl3uPpjRhTl-PB7od-1" vertex="1">
          <mxGeometry y="180" width="650" height="320" as="geometry" />
        </mxCell>
        <mxCell id="Rvfwl3uPpjRhTl-PB7od-6" value="Player" style="shape=umlLifeline;perimeter=lifelinePerimeter;whiteSpace=wrap;html=1;container=1;collapsible=0;recursiveResize=0;outlineConnect=0;" parent="Rvfwl3uPpjRhTl-PB7od-1" vertex="1">
          <mxGeometry x="80" y="40" width="100" height="450" as="geometry" />
        </mxCell>
        <mxCell id="Rvfwl3uPpjRhTl-PB7od-49" value="opt" style="shape=umlFrame;whiteSpace=wrap;html=1;width=40;height=20;boundedLbl=1;verticalAlign=middle;align=left;spacingLeft=5;" parent="Rvfwl3uPpjRhTl-PB7od-6" vertex="1">
          <mxGeometry x="-70" y="240" width="390" height="60" as="geometry" />
        </mxCell>
        <mxCell id="Rvfwl3uPpjRhTl-PB7od-9" value="" style="html=1;points=[];perimeter=orthogonalPerimeter;" parent="Rvfwl3uPpjRhTl-PB7od-6" vertex="1">
          <mxGeometry x="45" y="60" width="10" height="380" as="geometry" />
        </mxCell>
        <mxCell id="Rvfwl3uPpjRhTl-PB7od-12" value="" style="html=1;verticalAlign=bottom;labelBackgroundColor=none;endArrow=block;endFill=1;rounded=0;entryX=0.005;entryY=0;entryDx=0;entryDy=0;entryPerimeter=0;" parent="Rvfwl3uPpjRhTl-PB7od-6" target="Rvfwl3uPpjRhTl-PB7od-10" edge="1">
          <mxGeometry width="160" relative="1" as="geometry">
            <mxPoint x="55" y="60" as="sourcePoint" />
            <mxPoint x="230" y="60" as="targetPoint" />
          </mxGeometry>
        </mxCell>
        <mxCell id="Rvfwl3uPpjRhTl-PB7od-13" value="1.0 startTheGame(sessionCode)" style="edgeLabel;html=1;align=center;verticalAlign=middle;resizable=0;points=[];" parent="Rvfwl3uPpjRhTl-PB7od-12" vertex="1" connectable="0">
          <mxGeometry x="-0.1639" relative="1" as="geometry">
            <mxPoint x="19" y="-10" as="offset" />
          </mxGeometry>
        </mxCell>
        <mxCell id="Rvfwl3uPpjRhTl-PB7od-50" value="" style="html=1;verticalAlign=bottom;labelBackgroundColor=none;endArrow=block;endFill=1;rounded=0;entryX=0.005;entryY=0;entryDx=0;entryDy=0;entryPerimeter=0;" parent="Rvfwl3uPpjRhTl-PB7od-6" edge="1">
          <mxGeometry width="160" relative="1" as="geometry">
            <mxPoint x="55.00000000000003" y="260" as="sourcePoint" />
            <mxPoint x="285.0499999999997" y="260" as="targetPoint" />
          </mxGeometry>
        </mxCell>
        <mxCell id="Rvfwl3uPpjRhTl-PB7od-51" value="1.8 askForHint" style="edgeLabel;html=1;align=center;verticalAlign=middle;resizable=0;points=[];" parent="Rvfwl3uPpjRhTl-PB7od-50" vertex="1" connectable="0">
          <mxGeometry x="-0.1639" relative="1" as="geometry">
            <mxPoint x="19" y="-10" as="offset" />
          </mxGeometry>
        </mxCell>
        <mxCell id="Rvfwl3uPpjRhTl-PB7od-52" value="" style="html=1;verticalAlign=bottom;labelBackgroundColor=none;endArrow=open;endFill=0;dashed=1;rounded=0;exitX=-0.016;exitY=0.173;exitDx=0;exitDy=0;exitPerimeter=0;entryX=0.996;entryY=0.173;entryDx=0;entryDy=0;entryPerimeter=0;" parent="Rvfwl3uPpjRhTl-PB7od-6" edge="1">
          <mxGeometry width="160" relative="1" as="geometry">
            <mxPoint x="284.87999999999977" y="280" as="sourcePoint" />
            <mxPoint x="54.99999999999997" y="280" as="targetPoint" />
          </mxGeometry>
        </mxCell>
        <mxCell id="Rvfwl3uPpjRhTl-PB7od-53" value="1.9 displayHint" style="edgeLabel;html=1;align=center;verticalAlign=middle;resizable=0;points=[];" parent="Rvfwl3uPpjRhTl-PB7od-52" vertex="1" connectable="0">
          <mxGeometry x="0.3587" relative="1" as="geometry">
            <mxPoint x="31" y="-10" as="offset" />
          </mxGeometry>
        </mxCell>
        <mxCell id="Rvfwl3uPpjRhTl-PB7od-56" value="&lt;font style=&quot;font-size: 11px&quot;&gt;[player decides]&lt;/font&gt;" style="text;html=1;strokeColor=none;fillColor=none;align=center;verticalAlign=middle;whiteSpace=wrap;rounded=0;" parent="Rvfwl3uPpjRhTl-PB7od-6" vertex="1">
          <mxGeometry x="-70" y="260" width="80" height="20" as="geometry" />
        </mxCell>
        <mxCell id="Rvfwl3uPpjRhTl-PB7od-66" value="" style="html=1;verticalAlign=bottom;labelBackgroundColor=none;endArrow=open;endFill=0;dashed=1;rounded=0;exitX=-0.016;exitY=0.173;exitDx=0;exitDy=0;exitPerimeter=0;entryX=0.996;entryY=0.173;entryDx=0;entryDy=0;entryPerimeter=0;" parent="Rvfwl3uPpjRhTl-PB7od-6" edge="1">
          <mxGeometry width="160" relative="1" as="geometry">
            <mxPoint x="284.88" y="220.00000000000006" as="sourcePoint" />
            <mxPoint x="55" y="220.00000000000006" as="targetPoint" />
          </mxGeometry>
        </mxCell>
        <mxCell id="Rvfwl3uPpjRhTl-PB7od-67" value="1.7 displayQuestion&amp;nbsp;" style="edgeLabel;html=1;align=center;verticalAlign=middle;resizable=0;points=[];" parent="Rvfwl3uPpjRhTl-PB7od-66" vertex="1" connectable="0">
          <mxGeometry x="0.3587" relative="1" as="geometry">
            <mxPoint x="31" y="-10" as="offset" />
          </mxGeometry>
        </mxCell>
        <mxCell id="Rvfwl3uPpjRhTl-PB7od-68" value="" style="html=1;verticalAlign=bottom;labelBackgroundColor=none;endArrow=open;endFill=0;dashed=1;rounded=0;exitX=-0.016;exitY=0.173;exitDx=0;exitDy=0;exitPerimeter=0;entryX=0.996;entryY=0.173;entryDx=0;entryDy=0;entryPerimeter=0;" parent="Rvfwl3uPpjRhTl-PB7od-6" edge="1">
          <mxGeometry width="160" relative="1" as="geometry">
            <mxPoint x="284.88" y="350" as="sourcePoint" />
            <mxPoint x="55" y="350" as="targetPoint" />
          </mxGeometry>
        </mxCell>
        <mxCell id="Rvfwl3uPpjRhTl-PB7od-69" value="1.11 displayProperAswerAndComments" style="edgeLabel;html=1;align=center;verticalAlign=middle;resizable=0;points=[];" parent="Rvfwl3uPpjRhTl-PB7od-68" vertex="1" connectable="0">
          <mxGeometry x="0.3587" relative="1" as="geometry">
            <mxPoint x="31" y="-10" as="offset" />
          </mxGeometry>
        </mxCell>
        <mxCell id="Rvfwl3uPpjRhTl-PB7od-70" value="" style="html=1;verticalAlign=bottom;labelBackgroundColor=none;endArrow=open;endFill=0;dashed=1;rounded=0;exitX=-0.016;exitY=0.173;exitDx=0;exitDy=0;exitPerimeter=0;entryX=0.996;entryY=0.173;entryDx=0;entryDy=0;entryPerimeter=0;" parent="Rvfwl3uPpjRhTl-PB7od-6" edge="1">
          <mxGeometry width="160" relative="1" as="geometry">
            <mxPoint x="284.88" y="430" as="sourcePoint" />
            <mxPoint x="55" y="430" as="targetPoint" />
          </mxGeometry>
        </mxCell>
        <mxCell id="Rvfwl3uPpjRhTl-PB7od-71" value="1.16 displayFinalScreen" style="edgeLabel;html=1;align=center;verticalAlign=middle;resizable=0;points=[];" parent="Rvfwl3uPpjRhTl-PB7od-70" vertex="1" connectable="0">
          <mxGeometry x="0.3587" relative="1" as="geometry">
            <mxPoint x="31" y="-10" as="offset" />
          </mxGeometry>
        </mxCell>
        <mxCell id="Rvfwl3uPpjRhTl-PB7od-7" value="Game" style="shape=umlLifeline;perimeter=lifelinePerimeter;whiteSpace=wrap;html=1;container=1;collapsible=0;recursiveResize=0;outlineConnect=0;" parent="Rvfwl3uPpjRhTl-PB7od-1" vertex="1">
          <mxGeometry x="320" y="40" width="100" height="450" as="geometry" />
        </mxCell>
        <mxCell id="Rvfwl3uPpjRhTl-PB7od-10" value="" style="html=1;points=[];perimeter=orthogonalPerimeter;" parent="Rvfwl3uPpjRhTl-PB7od-7" vertex="1">
          <mxGeometry x="45" y="60" width="10" height="70" as="geometry" />
        </mxCell>
        <mxCell id="Rvfwl3uPpjRhTl-PB7od-14" value="" style="html=1;verticalAlign=bottom;labelBackgroundColor=none;endArrow=block;endFill=1;rounded=0;entryX=0.005;entryY=0;entryDx=0;entryDy=0;entryPerimeter=0;" parent="Rvfwl3uPpjRhTl-PB7od-7" edge="1">
          <mxGeometry width="160" relative="1" as="geometry">
            <mxPoint x="55" y="80" as="sourcePoint" />
            <mxPoint x="285.04999999999995" y="80" as="targetPoint" />
          </mxGeometry>
        </mxCell>
        <mxCell id="Rvfwl3uPpjRhTl-PB7od-15" value="1.1 startNewSession(sessionCode)" style="edgeLabel;html=1;align=center;verticalAlign=middle;resizable=0;points=[];" parent="Rvfwl3uPpjRhTl-PB7od-14" vertex="1" connectable="0">
          <mxGeometry x="-0.1639" relative="1" as="geometry">
            <mxPoint x="19" y="-10" as="offset" />
          </mxGeometry>
        </mxCell>
        <mxCell id="Rvfwl3uPpjRhTl-PB7od-24" value="" style="html=1;verticalAlign=bottom;labelBackgroundColor=none;endArrow=open;endFill=0;dashed=1;rounded=0;exitX=-0.016;exitY=0.173;exitDx=0;exitDy=0;exitPerimeter=0;entryX=0.996;entryY=0.173;entryDx=0;entryDy=0;entryPerimeter=0;" parent="Rvfwl3uPpjRhTl-PB7od-7" edge="1">
          <mxGeometry width="160" relative="1" as="geometry">
            <mxPoint x="44.999999999999886" y="120" as="sourcePoint" />
            <mxPoint x="-184.88" y="120" as="targetPoint" />
          </mxGeometry>
        </mxCell>
        <mxCell id="Rvfwl3uPpjRhTl-PB7od-25" value="1.3 displayTheLabirynth&amp;nbsp;" style="edgeLabel;html=1;align=center;verticalAlign=middle;resizable=0;points=[];" parent="Rvfwl3uPpjRhTl-PB7od-24" vertex="1" connectable="0">
          <mxGeometry x="0.3587" relative="1" as="geometry">
            <mxPoint x="31" y="-10" as="offset" />
          </mxGeometry>
        </mxCell>
        <mxCell id="Rvfwl3uPpjRhTl-PB7od-8" value="Backend Application" style="shape=umlLifeline;perimeter=lifelinePerimeter;whiteSpace=wrap;html=1;container=1;collapsible=0;recursiveResize=0;outlineConnect=0;" parent="Rvfwl3uPpjRhTl-PB7od-1" vertex="1">
          <mxGeometry x="560" y="40" width="100" height="450" as="geometry" />
        </mxCell>
        <mxCell id="Rvfwl3uPpjRhTl-PB7od-11" value="" style="html=1;points=[];perimeter=orthogonalPerimeter;" parent="Rvfwl3uPpjRhTl-PB7od-8" vertex="1">
          <mxGeometry x="45" y="80" width="10" height="30" as="geometry" />
        </mxCell>
        <mxCell id="Rvfwl3uPpjRhTl-PB7od-46" value="" style="html=1;points=[];perimeter=orthogonalPerimeter;" parent="Rvfwl3uPpjRhTl-PB7od-8" vertex="1">
          <mxGeometry x="45" y="360" width="10" height="10" as="geometry" />
        </mxCell>
        <mxCell id="Rvfwl3uPpjRhTl-PB7od-28" value="" style="html=1;points=[];perimeter=orthogonalPerimeter;" parent="Rvfwl3uPpjRhTl-PB7od-8" vertex="1">
          <mxGeometry x="45" y="180" width="10" height="30" as="geometry" />
        </mxCell>
        <mxCell id="Rvfwl3uPpjRhTl-PB7od-16" value="" style="html=1;verticalAlign=bottom;labelBackgroundColor=none;endArrow=open;endFill=0;dashed=1;rounded=0;exitX=-0.016;exitY=0.173;exitDx=0;exitDy=0;exitPerimeter=0;entryX=0.996;entryY=0.173;entryDx=0;entryDy=0;entryPerimeter=0;" parent="Rvfwl3uPpjRhTl-PB7od-1" edge="1">
          <mxGeometry width="160" relative="1" as="geometry">
            <mxPoint x="604.8799999999999" y="139.99999999999997" as="sourcePoint" />
            <mxPoint x="375.00000000000006" y="139.99999999999997" as="targetPoint" />
          </mxGeometry>
        </mxCell>
        <mxCell id="Rvfwl3uPpjRhTl-PB7od-17" value="1.2 returnSessionDetails&amp;nbsp;" style="edgeLabel;html=1;align=center;verticalAlign=middle;resizable=0;points=[];" parent="Rvfwl3uPpjRhTl-PB7od-16" vertex="1" connectable="0">
          <mxGeometry x="0.3587" relative="1" as="geometry">
            <mxPoint x="31" y="-10" as="offset" />
          </mxGeometry>
        </mxCell>
        <mxCell id="Rvfwl3uPpjRhTl-PB7od-27" value="" style="html=1;points=[];perimeter=orthogonalPerimeter;" parent="Rvfwl3uPpjRhTl-PB7od-1" vertex="1">
          <mxGeometry x="365" y="200" width="10" height="220" as="geometry" />
        </mxCell>
        <mxCell id="Rvfwl3uPpjRhTl-PB7od-29" value="" style="html=1;verticalAlign=bottom;labelBackgroundColor=none;endArrow=block;endFill=1;rounded=0;entryX=0.005;entryY=0;entryDx=0;entryDy=0;entryPerimeter=0;" parent="Rvfwl3uPpjRhTl-PB7od-1" edge="1">
          <mxGeometry width="160" relative="1" as="geometry">
            <mxPoint x="375" y="220" as="sourcePoint" />
            <mxPoint x="605.05" y="220" as="targetPoint" />
          </mxGeometry>
        </mxCell>
        <mxCell id="Rvfwl3uPpjRhTl-PB7od-30" value="1.5 prepareNextQuestion(sessionCode, type)" style="edgeLabel;html=1;align=center;verticalAlign=middle;resizable=0;points=[];fillColor=none;" parent="Rvfwl3uPpjRhTl-PB7od-29" vertex="1" connectable="0">
          <mxGeometry x="-0.1639" relative="1" as="geometry">
            <mxPoint x="15" y="-12" as="offset" />
          </mxGeometry>
        </mxCell>
        <mxCell id="Rvfwl3uPpjRhTl-PB7od-31" value="" style="html=1;verticalAlign=bottom;labelBackgroundColor=none;endArrow=open;endFill=0;dashed=1;rounded=0;exitX=0;exitY=0.662;exitDx=0;exitDy=0;exitPerimeter=0;entryX=1.008;entryY=0.182;entryDx=0;entryDy=0;entryPerimeter=0;" parent="Rvfwl3uPpjRhTl-PB7od-1" source="Rvfwl3uPpjRhTl-PB7od-28" target="Rvfwl3uPpjRhTl-PB7od-27" edge="1">
          <mxGeometry width="160" relative="1" as="geometry">
            <mxPoint x="604.8799999999999" y="214.86" as="sourcePoint" />
            <mxPoint x="400" y="240" as="targetPoint" />
          </mxGeometry>
        </mxCell>
        <mxCell id="Rvfwl3uPpjRhTl-PB7od-32" value="1.6 returnNextQuestion&amp;nbsp;" style="edgeLabel;html=1;align=center;verticalAlign=middle;resizable=0;points=[];" parent="Rvfwl3uPpjRhTl-PB7od-31" vertex="1" connectable="0">
          <mxGeometry x="0.3587" relative="1" as="geometry">
            <mxPoint x="31" y="-10" as="offset" />
          </mxGeometry>
        </mxCell>
        <mxCell id="Rvfwl3uPpjRhTl-PB7od-34" value="" style="html=1;verticalAlign=bottom;labelBackgroundColor=none;endArrow=block;endFill=1;rounded=0;entryX=0.005;entryY=0;entryDx=0;entryDy=0;entryPerimeter=0;" parent="Rvfwl3uPpjRhTl-PB7od-1" edge="1">
          <mxGeometry width="160" relative="1" as="geometry">
            <mxPoint x="134.95" y="200" as="sourcePoint" />
            <mxPoint x="364.99999999999994" y="200" as="targetPoint" />
          </mxGeometry>
        </mxCell>
        <mxCell id="Rvfwl3uPpjRhTl-PB7od-35" value="1.4 runIntoActivator(type)" style="edgeLabel;html=1;align=center;verticalAlign=middle;resizable=0;points=[];" parent="Rvfwl3uPpjRhTl-PB7od-34" vertex="1" connectable="0">
          <mxGeometry x="-0.1639" relative="1" as="geometry">
            <mxPoint x="19" y="-10" as="offset" />
          </mxGeometry>
        </mxCell>
        <mxCell id="Rvfwl3uPpjRhTl-PB7od-40" value="" style="html=1;verticalAlign=bottom;labelBackgroundColor=none;endArrow=block;endFill=1;rounded=0;entryX=0.005;entryY=0;entryDx=0;entryDy=0;entryPerimeter=0;" parent="Rvfwl3uPpjRhTl-PB7od-1" edge="1">
          <mxGeometry width="160" relative="1" as="geometry">
            <mxPoint x="134.98000000000005" y="370" as="sourcePoint" />
            <mxPoint x="365.02999999999986" y="370" as="targetPoint" />
          </mxGeometry>
        </mxCell>
        <mxCell id="Rvfwl3uPpjRhTl-PB7od-41" value="1.10 answerTheQuestion(answer)" style="edgeLabel;html=1;align=center;verticalAlign=middle;resizable=0;points=[];" parent="Rvfwl3uPpjRhTl-PB7od-40" vertex="1" connectable="0">
          <mxGeometry x="-0.1639" relative="1" as="geometry">
            <mxPoint x="19" y="-10" as="offset" />
          </mxGeometry>
        </mxCell>
        <mxCell id="Rvfwl3uPpjRhTl-PB7od-44" value="" style="html=1;verticalAlign=bottom;labelBackgroundColor=none;endArrow=open;endFill=0;dashed=1;rounded=0;exitX=-0.016;exitY=0.173;exitDx=0;exitDy=0;exitPerimeter=0;entryX=0.996;entryY=0.173;entryDx=0;entryDy=0;entryPerimeter=0;" parent="Rvfwl3uPpjRhTl-PB7od-1" edge="1">
          <mxGeometry width="160" relative="1" as="geometry">
            <mxPoint x="364.9999999999999" y="410" as="sourcePoint" />
            <mxPoint x="135.12" y="410" as="targetPoint" />
          </mxGeometry>
        </mxCell>
        <mxCell id="Rvfwl3uPpjRhTl-PB7od-45" value="1.13&amp;nbsp; reassignPoints" style="edgeLabel;html=1;align=center;verticalAlign=middle;resizable=0;points=[];" parent="Rvfwl3uPpjRhTl-PB7od-44" vertex="1" connectable="0">
          <mxGeometry x="0.3587" relative="1" as="geometry">
            <mxPoint x="31" y="-10" as="offset" />
          </mxGeometry>
        </mxCell>
        <mxCell id="Rvfwl3uPpjRhTl-PB7od-47" value="" style="html=1;verticalAlign=bottom;labelBackgroundColor=none;endArrow=block;endFill=1;rounded=0;entryX=0.005;entryY=0;entryDx=0;entryDy=0;entryPerimeter=0;" parent="Rvfwl3uPpjRhTl-PB7od-1" edge="1">
          <mxGeometry width="160" relative="1" as="geometry">
            <mxPoint x="375" y="400" as="sourcePoint" />
            <mxPoint x="605.0499999999998" y="400" as="targetPoint" />
          </mxGeometry>
        </mxCell>
        <mxCell id="Rvfwl3uPpjRhTl-PB7od-48" value="1.12 updateStudentsAnswers&lt;br&gt;(answerCorrectness,hintUsed,time)" style="edgeLabel;html=1;align=center;verticalAlign=middle;resizable=0;points=[];" parent="Rvfwl3uPpjRhTl-PB7od-47" vertex="1" connectable="0">
          <mxGeometry x="-0.1639" relative="1" as="geometry">
            <mxPoint x="19" y="-20" as="offset" />
          </mxGeometry>
        </mxCell>
        <mxCell id="Rvfwl3uPpjRhTl-PB7od-55" value="&lt;font style=&quot;font-size: 11px&quot;&gt;[while activators remain]&lt;/font&gt;" style="text;html=1;strokeColor=none;fillColor=none;align=center;verticalAlign=middle;whiteSpace=wrap;rounded=0;" parent="Rvfwl3uPpjRhTl-PB7od-1" vertex="1">
          <mxGeometry y="200" width="120" height="20" as="geometry" />
        </mxCell>
        <mxCell id="Rvfwl3uPpjRhTl-PB7od-63" value="" style="html=1;points=[];perimeter=orthogonalPerimeter;" parent="Rvfwl3uPpjRhTl-PB7od-1" vertex="1">
          <mxGeometry x="605" y="460" width="10" height="10" as="geometry" />
        </mxCell>
        <mxCell id="Rvfwl3uPpjRhTl-PB7od-64" value="" style="html=1;verticalAlign=bottom;labelBackgroundColor=none;endArrow=block;endFill=1;rounded=0;entryX=0.005;entryY=0;entryDx=0;entryDy=0;entryPerimeter=0;" parent="Rvfwl3uPpjRhTl-PB7od-1" edge="1">
          <mxGeometry width="160" relative="1" as="geometry">
            <mxPoint x="375" y="460" as="sourcePoint" />
            <mxPoint x="605.0499999999997" y="460" as="targetPoint" />
          </mxGeometry>
        </mxCell>
        <mxCell id="Rvfwl3uPpjRhTl-PB7od-65" value="1.15 finshGame" style="edgeLabel;html=1;align=center;verticalAlign=middle;resizable=0;points=[];" parent="Rvfwl3uPpjRhTl-PB7od-64" vertex="1" connectable="0">
          <mxGeometry x="-0.1639" relative="1" as="geometry">
            <mxPoint x="19" y="-10" as="offset" />
          </mxGeometry>
        </mxCell>
        <mxCell id="Rvfwl3uPpjRhTl-PB7od-59" value="" style="html=1;verticalAlign=bottom;labelBackgroundColor=none;endArrow=block;endFill=1;rounded=0;entryX=0.005;entryY=0;entryDx=0;entryDy=0;entryPerimeter=0;" parent="Rvfwl3uPpjRhTl-PB7od-1" edge="1">
          <mxGeometry width="160" relative="1" as="geometry">
            <mxPoint x="135.00000000000003" y="450" as="sourcePoint" />
            <mxPoint x="365.0499999999997" y="450" as="targetPoint" />
          </mxGeometry>
        </mxCell>
        <mxCell id="Rvfwl3uPpjRhTl-PB7od-60" value="1.14 finishGame" style="edgeLabel;html=1;align=center;verticalAlign=middle;resizable=0;points=[];" parent="Rvfwl3uPpjRhTl-PB7od-59" vertex="1" connectable="0">
          <mxGeometry x="-0.1639" relative="1" as="geometry">
            <mxPoint x="19" y="-10" as="offset" />
          </mxGeometry>
        </mxCell>
        <mxCell id="Rvfwl3uPpjRhTl-PB7od-72" value="" style="html=1;points=[];perimeter=orthogonalPerimeter;" parent="Rvfwl3uPpjRhTl-PB7od-1" vertex="1">
          <mxGeometry x="365" y="450" width="10" height="30" as="geometry" />
        </mxCell>
        <mxCell id="aAu0nsHFfpLlZD4cdoT5-0" value="&lt;font style=&quot;font-size: 24px&quot;&gt;Gameplay simplified sequence diagram&lt;/font&gt;" style="text;html=1;strokeColor=none;fillColor=none;align=center;verticalAlign=middle;whiteSpace=wrap;rounded=0;" parent="Rvfwl3uPpjRhTl-PB7od-1" vertex="1">
          <mxGeometry width="680" height="30" as="geometry" />
        </mxCell>
      </root>
    </mxGraphModel>
  </diagram>
  <diagram id="MrDHUA88UhUdSVgIU2RM" name="Models">
    <mxGraphModel dx="1614" dy="834" grid="1" gridSize="10" guides="1" tooltips="1" connect="1" arrows="1" fold="1" page="1" pageScale="1" pageWidth="1169" pageHeight="827" math="0" shadow="0">
      <root>
        <mxCell id="DHDDwu-oHcUH1npMtySW-0" />
        <mxCell id="DHDDwu-oHcUH1npMtySW-1" parent="DHDDwu-oHcUH1npMtySW-0" />
        <mxCell id="h8FsM0DetGbPEsqbGpE3-0" value="&lt;font style=&quot;font-size: 24px&quot;&gt;Entity Framework Models Class Diagram&lt;/font&gt;" style="text;html=1;strokeColor=none;fillColor=none;align=center;verticalAlign=middle;whiteSpace=wrap;rounded=0;" parent="DHDDwu-oHcUH1npMtySW-1" vertex="1">
          <mxGeometry width="1280" height="30" as="geometry" />
        </mxCell>
      </root>
    </mxGraphModel>
  </diagram>
  <diagram id="1G43henku3uzeP9Yz3F5" name="Network structure">
    <mxGraphModel dx="785" dy="477" grid="1" gridSize="10" guides="1" tooltips="1" connect="1" arrows="1" fold="1" page="1" pageScale="1" pageWidth="1169" pageHeight="827" math="0" shadow="0">
      <root>
        <mxCell id="0otLV9DQ5s3Ku1igJQ5T-0" />
        <mxCell id="0otLV9DQ5s3Ku1igJQ5T-1" parent="0otLV9DQ5s3Ku1igJQ5T-0" />
        <mxCell id="0otLV9DQ5s3Ku1igJQ5T-36" value="Azure" style="rounded=0;whiteSpace=wrap;html=1;fillColor=#dae8fc;strokeColor=#6c8ebf;verticalAlign=top;align=left;spacingLeft=5;" vertex="1" parent="0otLV9DQ5s3Ku1igJQ5T-1">
          <mxGeometry x="380" y="4" width="250" height="380" as="geometry" />
        </mxCell>
        <mxCell id="0otLV9DQ5s3Ku1igJQ5T-28" style="edgeStyle=orthogonalEdgeStyle;rounded=0;orthogonalLoop=1;jettySize=auto;html=1;startArrow=blockThin;strokeColor=#7EA6E0;strokeWidth=3;fillColor=#66B2FF;startFill=1;endArrow=blockThin;endFill=1;" edge="1" parent="0otLV9DQ5s3Ku1igJQ5T-1" source="0otLV9DQ5s3Ku1igJQ5T-2" target="0otLV9DQ5s3Ku1igJQ5T-3">
          <mxGeometry relative="1" as="geometry" />
        </mxCell>
        <mxCell id="0otLV9DQ5s3Ku1igJQ5T-39" style="edgeStyle=orthogonalEdgeStyle;rounded=0;orthogonalLoop=1;jettySize=auto;html=1;entryX=1.004;entryY=0.5;entryDx=0;entryDy=0;entryPerimeter=0;startArrow=blockThin;strokeColor=#7EA6E0;strokeWidth=3;fillColor=#66B2FF;startFill=1;endArrow=blockThin;endFill=1;" edge="1" parent="0otLV9DQ5s3Ku1igJQ5T-1" source="0otLV9DQ5s3Ku1igJQ5T-2" target="0otLV9DQ5s3Ku1igJQ5T-35">
          <mxGeometry relative="1" as="geometry" />
        </mxCell>
        <mxCell id="0otLV9DQ5s3Ku1igJQ5T-2" value="Windows VM" style="aspect=fixed;html=1;points=[];align=center;image;fontSize=11;image=img/lib/azure2/compute/Virtual_Machine.svg;labelBackgroundColor=none;verticalAlign=top;spacingTop=-37;" vertex="1" parent="0otLV9DQ5s3Ku1igJQ5T-1">
          <mxGeometry x="543.62" y="143" width="69" height="64" as="geometry" />
        </mxCell>
        <mxCell id="0otLV9DQ5s3Ku1igJQ5T-3" value="Disk" style="aspect=fixed;html=1;points=[];align=center;image;fontSize=12;image=img/lib/azure2/compute/Disks.svg;verticalAlign=top;spacingTop=-60;labelBackgroundColor=none;" vertex="1" parent="0otLV9DQ5s3Ku1igJQ5T-1">
          <mxGeometry x="559.8000000000001" y="64" width="36.64" height="36" as="geometry" />
        </mxCell>
        <mxCell id="0otLV9DQ5s3Ku1igJQ5T-4" value="&lt;font style=&quot;font-size: 8px&quot;&gt;Security rules&lt;/font&gt;" style="aspect=fixed;html=1;points=[];align=center;image;fontSize=12;image=img/lib/azure2/networking/Network_Security_Groups.svg;labelBackgroundColor=none;" vertex="1" parent="0otLV9DQ5s3Ku1igJQ5T-1">
          <mxGeometry x="471.61" y="34.5" width="24.29" height="29.5" as="geometry" />
        </mxCell>
        <mxCell id="0otLV9DQ5s3Ku1igJQ5T-27" style="edgeStyle=orthogonalEdgeStyle;rounded=0;orthogonalLoop=1;jettySize=auto;html=1;startArrow=blockThin;strokeColor=#7EA6E0;strokeWidth=3;fillColor=#66B2FF;startFill=1;endArrow=blockThin;endFill=1;" edge="1" parent="0otLV9DQ5s3Ku1igJQ5T-1" source="0otLV9DQ5s3Ku1igJQ5T-5" target="0otLV9DQ5s3Ku1igJQ5T-2">
          <mxGeometry relative="1" as="geometry" />
        </mxCell>
        <mxCell id="0otLV9DQ5s3Ku1igJQ5T-5" value="" style="aspect=fixed;html=1;points=[];align=center;image;fontSize=12;image=img/lib/azure2/networking/Network_Interfaces.svg;" vertex="1" parent="0otLV9DQ5s3Ku1igJQ5T-1">
          <mxGeometry x="414.62" y="145" width="68" height="60" as="geometry" />
        </mxCell>
        <mxCell id="0otLV9DQ5s3Ku1igJQ5T-6" value="&lt;font style=&quot;font-size: 8px&quot;&gt;Public static IP&lt;/font&gt;" style="aspect=fixed;html=1;points=[];align=center;image;fontSize=12;image=img/lib/azure2/networking/Public_IP_Addresses.svg;labelBackgroundColor=none;" vertex="1" parent="0otLV9DQ5s3Ku1igJQ5T-1">
          <mxGeometry x="465.63" y="91" width="36.25" height="29" as="geometry" />
        </mxCell>
        <mxCell id="0otLV9DQ5s3Ku1igJQ5T-20" style="edgeStyle=orthogonalEdgeStyle;rounded=0;orthogonalLoop=1;jettySize=auto;html=1;fillColor=#66B2FF;strokeColor=#7EA6E0;startArrow=blockThin;strokeWidth=3;startFill=1;endArrow=blockThin;endFill=1;" edge="1" parent="0otLV9DQ5s3Ku1igJQ5T-1">
          <mxGeometry relative="1" as="geometry">
            <mxPoint x="78" y="173.9999999999999" as="sourcePoint" />
            <mxPoint x="120" y="173.9999999999999" as="targetPoint" />
          </mxGeometry>
        </mxCell>
        <mxCell id="0otLV9DQ5s3Ku1igJQ5T-10" value="Teacher" style="aspect=fixed;html=1;points=[];align=center;image;fontSize=12;image=img/lib/azure2/identity/Groups.svg;labelBackgroundColor=none;" vertex="1" parent="0otLV9DQ5s3Ku1igJQ5T-1">
          <mxGeometry x="10" y="146" width="68" height="56.00000000000001" as="geometry" />
        </mxCell>
        <mxCell id="0otLV9DQ5s3Ku1igJQ5T-11" value="" style="aspect=fixed;html=1;points=[];align=center;image;fontSize=12;image=img/lib/azure2/general/Browser.svg;" vertex="1" parent="0otLV9DQ5s3Ku1igJQ5T-1">
          <mxGeometry x="120" y="148" width="65" height="52" as="geometry" />
        </mxCell>
        <mxCell id="0otLV9DQ5s3Ku1igJQ5T-16" value="&lt;font style=&quot;font-size: 8px&quot;&gt;Domain&lt;/font&gt;" style="aspect=fixed;html=1;points=[];align=center;image;fontSize=12;image=img/lib/azure2/app_services/App_Service_Domains.svg;labelBackgroundColor=none;" vertex="1" parent="0otLV9DQ5s3Ku1igJQ5T-1">
          <mxGeometry x="399.99" y="91" width="36.25" height="29" as="geometry" />
        </mxCell>
        <mxCell id="0otLV9DQ5s3Ku1igJQ5T-22" style="edgeStyle=orthogonalEdgeStyle;rounded=0;orthogonalLoop=1;jettySize=auto;html=1;startArrow=blockThin;strokeColor=#7EA6E0;strokeWidth=3;fillColor=#66B2FF;dashed=1;startFill=1;endArrow=blockThin;endFill=1;entryX=-0.021;entryY=0.492;entryDx=0;entryDy=0;entryPerimeter=0;" edge="1" parent="0otLV9DQ5s3Ku1igJQ5T-1" source="0otLV9DQ5s3Ku1igJQ5T-11" target="0otLV9DQ5s3Ku1igJQ5T-5">
          <mxGeometry relative="1" as="geometry">
            <mxPoint x="308" y="174" as="sourcePoint" />
            <mxPoint x="410" y="175" as="targetPoint" />
            <Array as="points" />
          </mxGeometry>
        </mxCell>
        <mxCell id="0otLV9DQ5s3Ku1igJQ5T-30" style="edgeStyle=orthogonalEdgeStyle;rounded=0;orthogonalLoop=1;jettySize=auto;html=1;startArrow=blockThin;strokeColor=#7EA6E0;strokeWidth=3;fillColor=#66B2FF;dashed=1;startFill=1;endArrow=blockThin;endFill=1;" edge="1" parent="0otLV9DQ5s3Ku1igJQ5T-1" source="0otLV9DQ5s3Ku1igJQ5T-19">
          <mxGeometry relative="1" as="geometry">
            <mxPoint x="284.02857142857147" y="246" as="sourcePoint" />
            <mxPoint x="413.6200000000001" y="186.02857142857135" as="targetPoint" />
            <Array as="points">
              <mxPoint x="284" y="186" />
            </Array>
          </mxGeometry>
        </mxCell>
        <mxCell id="0otLV9DQ5s3Ku1igJQ5T-19" value="Game&lt;br&gt;yarde.github.io" style="aspect=fixed;html=1;points=[];align=center;image;fontSize=12;image=img/lib/azure2/other/Peering_Service.svg;labelBackgroundColor=none;" vertex="1" parent="0otLV9DQ5s3Ku1igJQ5T-1">
          <mxGeometry x="249.99999999999994" y="240" width="68" height="69" as="geometry" />
        </mxCell>
        <mxCell id="0otLV9DQ5s3Ku1igJQ5T-29" style="edgeStyle=orthogonalEdgeStyle;rounded=0;orthogonalLoop=1;jettySize=auto;html=1;startArrow=blockThin;strokeColor=#7EA6E0;strokeWidth=3;fillColor=#66B2FF;dashed=1;startFill=1;endArrow=blockThin;endFill=1;" edge="1" parent="0otLV9DQ5s3Ku1igJQ5T-1">
          <mxGeometry relative="1" as="geometry">
            <mxPoint x="284.02857142857147" y="116" as="sourcePoint" />
            <mxPoint x="413.6200000000001" y="163.02857142857135" as="targetPoint" />
            <Array as="points">
              <mxPoint x="284" y="163" />
            </Array>
          </mxGeometry>
        </mxCell>
        <mxCell id="0otLV9DQ5s3Ku1igJQ5T-23" value="PostgreSQL DB&lt;br&gt;compute.amazonaws.com" style="aspect=fixed;html=1;points=[];align=center;image;fontSize=12;image=img/lib/azure2/general/Production_Ready_Database.svg;labelBackgroundColor=none;spacingTop=-100;" vertex="1" parent="0otLV9DQ5s3Ku1igJQ5T-1">
          <mxGeometry x="260" y="49" width="48" height="64" as="geometry" />
        </mxCell>
        <mxCell id="0otLV9DQ5s3Ku1igJQ5T-24" value="&lt;font style=&quot;font-size: 8px&quot;&gt;Network monitoring&lt;/font&gt;" style="aspect=fixed;html=1;points=[];align=center;image;fontSize=12;image=img/lib/azure2/networking/Network_Watcher.svg;labelBackgroundColor=none;" vertex="1" parent="0otLV9DQ5s3Ku1igJQ5T-1">
          <mxGeometry x="401.62" y="31" width="33" height="33" as="geometry" />
        </mxCell>
        <mxCell id="0otLV9DQ5s3Ku1igJQ5T-33" value="Client App" style="aspect=fixed;html=1;points=[];align=center;image;fontSize=11;image=img/lib/azure2/general/Code.svg;labelBackgroundColor=none;spacingTop=-6;" vertex="1" parent="0otLV9DQ5s3Ku1igJQ5T-1">
          <mxGeometry x="509.57" y="217" width="49.23" height="40" as="geometry" />
        </mxCell>
        <mxCell id="0otLV9DQ5s3Ku1igJQ5T-42" style="edgeStyle=orthogonalEdgeStyle;rounded=0;orthogonalLoop=1;jettySize=auto;html=1;entryX=0.499;entryY=0.996;entryDx=0;entryDy=0;entryPerimeter=0;startArrow=blockThin;strokeColor=#7EA6E0;strokeWidth=3;fillColor=#66B2FF;startFill=1;endArrow=blockThin;endFill=1;" edge="1" parent="0otLV9DQ5s3Ku1igJQ5T-1" source="0otLV9DQ5s3Ku1igJQ5T-34" target="0otLV9DQ5s3Ku1igJQ5T-2">
          <mxGeometry relative="1" as="geometry">
            <Array as="points">
              <mxPoint x="578" y="307" />
            </Array>
          </mxGeometry>
        </mxCell>
        <mxCell id="0otLV9DQ5s3Ku1igJQ5T-34" value="Backend App" style="aspect=fixed;html=1;points=[];align=center;image;fontSize=11;image=img/lib/azure2/general/Code.svg;labelBackgroundColor=none;spacingTop=-6;" vertex="1" parent="0otLV9DQ5s3Ku1igJQ5T-1">
          <mxGeometry x="509.56999999999994" y="275" width="49.23" height="40" as="geometry" />
        </mxCell>
        <mxCell id="0otLV9DQ5s3Ku1igJQ5T-35" value="&lt;font style=&quot;font-size: 11px&quot;&gt;AI Scripts&lt;/font&gt;" style="aspect=fixed;html=1;points=[];align=center;image;fontSize=12;image=img/lib/azure2/general/Code.svg;spacingTop=-7;labelBackgroundColor=none;" vertex="1" parent="0otLV9DQ5s3Ku1igJQ5T-1">
          <mxGeometry x="509.56999999999994" y="331" width="49.23" height="40" as="geometry" />
        </mxCell>
        <mxCell id="0otLV9DQ5s3Ku1igJQ5T-46" style="edgeStyle=orthogonalEdgeStyle;rounded=0;orthogonalLoop=1;jettySize=auto;html=1;entryX=0.004;entryY=0.55;entryDx=0;entryDy=0;entryPerimeter=0;startArrow=blockThin;startFill=1;strokeColor=#7EA6E0;strokeWidth=3;fillColor=#66B2FF;endArrow=blockThin;endFill=1;" edge="1" parent="0otLV9DQ5s3Ku1igJQ5T-1" source="0otLV9DQ5s3Ku1igJQ5T-43" target="0otLV9DQ5s3Ku1igJQ5T-44">
          <mxGeometry relative="1" as="geometry">
            <Array as="points">
              <mxPoint x="99" y="281" />
            </Array>
          </mxGeometry>
        </mxCell>
        <mxCell id="0otLV9DQ5s3Ku1igJQ5T-43" value="Student" style="aspect=fixed;html=1;points=[];align=center;image;fontSize=12;image=img/lib/azure2/identity/Groups.svg;labelBackgroundColor=none;" vertex="1" parent="0otLV9DQ5s3Ku1igJQ5T-1">
          <mxGeometry x="10" y="253" width="68" height="56.00000000000001" as="geometry" />
        </mxCell>
        <mxCell id="0otLV9DQ5s3Ku1igJQ5T-47" style="edgeStyle=orthogonalEdgeStyle;rounded=0;orthogonalLoop=1;jettySize=auto;html=1;entryX=0;entryY=0.565;entryDx=0;entryDy=0;entryPerimeter=0;startArrow=blockThin;startFill=1;strokeColor=#7EA6E0;strokeWidth=3;fillColor=#66B2FF;dashed=1;endArrow=blockThin;endFill=1;" edge="1" parent="0otLV9DQ5s3Ku1igJQ5T-1" source="0otLV9DQ5s3Ku1igJQ5T-44" target="0otLV9DQ5s3Ku1igJQ5T-19">
          <mxGeometry relative="1" as="geometry" />
        </mxCell>
        <mxCell id="0otLV9DQ5s3Ku1igJQ5T-44" value="" style="aspect=fixed;html=1;points=[];align=center;image;fontSize=12;image=img/lib/azure2/general/Browser.svg;" vertex="1" parent="0otLV9DQ5s3Ku1igJQ5T-1">
          <mxGeometry x="120" y="253" width="65" height="52" as="geometry" />
        </mxCell>
        <mxCell id="0otLV9DQ5s3Ku1igJQ5T-52" style="edgeStyle=orthogonalEdgeStyle;rounded=0;orthogonalLoop=1;jettySize=auto;html=1;entryX=0.499;entryY=0.996;entryDx=0;entryDy=0;entryPerimeter=0;startArrow=blockThin;strokeColor=#7EA6E0;strokeWidth=3;fillColor=#66B2FF;startFill=1;endArrow=blockThin;endFill=1;" edge="1" parent="0otLV9DQ5s3Ku1igJQ5T-1">
          <mxGeometry relative="1" as="geometry">
            <mxPoint x="559" y="240" as="sourcePoint" />
            <mxPoint x="578.051" y="206.74400000000003" as="targetPoint" />
            <Array as="points">
              <mxPoint x="559" y="240" />
              <mxPoint x="578" y="240" />
            </Array>
          </mxGeometry>
        </mxCell>
      </root>
    </mxGraphModel>
  </diagram>
</mxfile>
